<svg width="9" height="14" viewBox="0 0 9 14" fill="none" xmlns="http://www.w3.org/2000/svg">
<path d="M8.30078 6.96429C8.30078 6.85268 8.24498 6.72712 8.16127 6.64341L1.66016 0.142298C1.57645 0.0585938 1.45089 0.0027889 1.33929 0.0027889C1.22768 0.0027889 1.10212 0.0585938 1.01842 0.142298L0.320871 0.839844C0.237165 0.923548 0.181362 1.04911 0.181362 1.16071C0.181362 1.27232 0.237165 1.39788 0.320871 1.48158L5.80357 6.96429L0.320871 12.447C0.237165 12.5307 0.181362 12.6562 0.181362 12.7679C0.181362 12.8934 0.237165 13.005 0.320871 13.0887L1.01842 13.7863C1.10212 13.87 1.22768 13.9258 1.33929 13.9258C1.45089 13.9258 1.57645 13.87 1.66016 13.7863L8.16127 7.28516C8.24498 7.20145 8.30078 7.07589 8.30078 6.96429Z" fill="#2747F0"/>
</svg>
