<svg width="13" height="20" viewBox="0 0 12 20" fill="none" xmlns="http://www.w3.org/2000/svg">
<path d="M11.6211 9.75C11.6211 9.59375 11.543 9.41797 11.4258 9.30078L2.32422 0.199217C2.20703 0.0820312 2.03125 0.00390446 1.875 0.00390446C1.71875 0.00390446 1.54297 0.0820312 1.42578 0.199217L0.449219 1.17578C0.332031 1.29297 0.253906 1.46875 0.253906 1.625C0.253906 1.78125 0.332031 1.95703 0.449219 2.07422L8.125 9.75L0.449219 17.4258C0.332031 17.543 0.253906 17.7187 0.253906 17.875C0.253906 18.0508 0.332031 18.207 0.449219 18.3242L1.42578 19.3008C1.54297 19.418 1.71875 19.4961 1.875 19.4961C2.03125 19.4961 2.20703 19.418 2.32422 19.3008L11.4258 10.1992C11.543 10.082 11.6211 9.90625 11.6211 9.75Z" fill="#2747F0"/>
</svg>
