<svg width="13" height="20" viewBox="0 0 13 20" fill="none" xmlns="http://www.w3.org/2000/svg">
<path d="M12.2461 1.625C12.2461 1.44922 12.168 1.29297 12.0508 1.17578L11.0742 0.199217C10.957 0.0820312 10.7813 0.00390446 10.625 0.00390446C10.4688 0.00390446 10.293 0.0820312 10.1758 0.199217L1.07422 9.30078C0.957031 9.41797 0.878906 9.59375 0.878906 9.75C0.878906 9.90625 0.957031 10.082 1.07422 10.1992L10.1758 19.3008C10.293 19.418 10.4688 19.4961 10.625 19.4961C10.7813 19.4961 10.957 19.418 11.0742 19.3008L12.0508 18.3242C12.168 18.207 12.2461 18.0312 12.2461 17.875C12.2461 17.7187 12.168 17.543 12.0508 17.4258L4.375 9.75L12.0508 2.07422C12.168 1.95703 12.2461 1.78125 12.2461 1.625Z" fill="#2747F0"/>
</svg>
