<svg width="20" height="16" viewBox="0 0 20 16" fill="none" xmlns="http://www.w3.org/2000/svg">
<path d="M1.08889 15.5534H4.49223C4.57252 15.5751 4.65506 15.5904 4.74156 15.5904H15.2578C15.3448 15.5904 15.4277 15.5751 15.5073 15.5534H18.9101C19.5114 15.5534 20 15.0643 20 14.4638V3.0814C20 2.48047 19.5114 1.99208 18.9101 1.99208H15.5073C15.4268 1.97035 15.3448 1.955 15.2578 1.955H13.3713C13.3555 1.48024 13.296 0.982368 13.0867 0.683973C13.0601 0.644905 13.0288 0.610323 12.9945 0.578068C12.9752 0.559526 12.9547 0.543054 12.9338 0.527358C12.8984 0.501745 12.8605 0.479408 12.8203 0.461729C12.7986 0.452673 12.7756 0.446033 12.7527 0.439565C12.6956 0.42223 12.6364 0.410156 12.574 0.410156H7.357C7.29439 0.410156 7.23549 0.42223 7.17848 0.439565C7.15554 0.446033 7.13234 0.452587 7.11104 0.461729C7.07059 0.479408 7.03316 0.501745 6.99755 0.527358C6.97616 0.543054 6.95563 0.559526 6.93614 0.578068C6.90191 0.610236 6.87034 0.644819 6.84378 0.683973C6.63447 0.982368 6.57505 1.48024 6.55935 1.955H4.74199C4.65549 1.955 4.57252 1.97035 4.49266 1.99208H1.08932C0.488817 1.99208 2.85021e-07 2.4809 2.85021e-07 3.0814V14.4638C-0.000430922 15.0643 0.488472 15.5534 1.08889 15.5534ZM18.7636 3.22853V14.3168H16.2503V3.22853H18.7636ZM4.98553 3.22853V3.19153H15.0139V3.22853V14.3168V14.3539H4.98553V14.3168V3.22853ZM12.0765 1.64677C12.087 1.74578 12.0974 1.85082 12.1059 1.95509H7.82452C7.83323 1.85091 7.8434 1.74535 7.85367 1.64677H12.0765ZM1.2361 3.22853H3.74909V14.3168H1.2361V3.22853Z" fill="#9F9F9F"/>
</svg>
