<svg width="40" height="40" viewBox="0 0 40 40" fill="none" xmlns="http://www.w3.org/2000/svg">
<path d="M36.6131 13.0761C35.9707 12.9556 35.3065 13.0854 34.7567 13.4391C34.207 13.7928 33.8135 14.3434 33.6569 14.978L32.1806 20.478C31.7937 20.222 31.3431 20.079 30.8793 20.0651C30.4156 20.0512 29.9572 20.1669 29.5556 20.3993L25.2819 22.9061C24.4369 23.4036 23.7359 24.1125 23.2482 24.9632C22.7604 25.8138 22.5025 26.7768 22.5 27.7574V32.4999H21.25C21.0842 32.4999 20.9253 32.5657 20.8081 32.683C20.6908 32.8002 20.625 32.9591 20.625 33.1249V38.1249C20.625 38.2907 20.6908 38.4496 20.8081 38.5668C20.9253 38.684 21.0842 38.7499 21.25 38.7499H32.5C32.6658 38.7499 32.8247 38.684 32.942 38.5668C33.0592 38.4496 33.125 38.2907 33.125 38.1249V33.1249C33.125 32.9591 33.0592 32.8002 32.942 32.683C32.8247 32.5657 32.6658 32.4999 32.5 32.4999H31.25V31.7749C31.2499 31.5044 31.3084 31.2371 31.4213 30.9914C31.5343 30.7456 31.6991 30.5272 31.9044 30.3511L34.8188 27.8511C35.2975 27.4418 35.6409 26.8971 35.8038 26.2886L38.5156 16.1686C38.5726 15.9565 38.601 15.7377 38.6 15.518C38.5969 14.9454 38.3982 14.3911 38.0368 13.947C37.6755 13.5029 37.1731 13.1956 36.6131 13.0761ZM31.875 37.4999H21.875V33.7499H31.875V37.4999ZM37.3088 15.8443L34.5963 25.9655C34.4989 26.3306 34.2929 26.6576 34.0056 26.903L31.0913 29.403C30.7491 29.6963 30.4744 30.0601 30.2861 30.4695C30.0977 30.8789 30.0001 31.3242 30 31.7749V32.4999H23.75V27.7574C23.7516 26.9949 23.9517 26.2459 24.3307 25.5842C24.7096 24.9225 25.2544 24.3709 25.9113 23.9836L30.18 21.4793C30.3702 21.37 30.5857 21.3125 30.805 21.3124C31.037 21.3103 31.2649 21.3737 31.4624 21.4953C31.66 21.617 31.8192 21.7918 31.9219 21.9999C32.0586 22.302 32.0758 22.6447 31.9702 22.959C31.8646 23.2733 31.6439 23.536 31.3525 23.6943L27.8525 25.7111C27.7813 25.7522 27.719 25.8068 27.6689 25.872C27.6189 25.9371 27.5822 26.0115 27.5609 26.0908C27.5396 26.1702 27.5341 26.2529 27.5448 26.3344C27.5555 26.4158 27.5821 26.4944 27.6231 26.5655C27.6642 26.6367 27.7188 26.6991 27.784 26.7491C27.8491 26.7991 27.9235 26.8359 28.0028 26.8572C28.0822 26.8785 28.1649 26.8839 28.2464 26.8732C28.3278 26.8626 28.4063 26.8359 28.4775 26.7949L31.9775 24.778C32.5018 24.4858 32.9063 24.0182 33.12 23.4573C33.3336 22.8964 33.3427 22.2781 33.1456 21.7111L34.865 15.3049C34.9429 14.9815 35.1396 14.6992 35.4159 14.5139C35.6923 14.3287 36.0281 14.2541 36.3569 14.3049C36.6357 14.3643 36.886 14.5168 37.0665 14.7374C37.247 14.9581 37.347 15.2336 37.35 15.5186C37.3508 15.6285 37.337 15.7381 37.3088 15.8443Z" fill="white"/>
<path d="M18.7498 32.5008H17.4998V27.7583C17.4977 26.7779 17.2404 25.815 16.7532 24.9642C16.266 24.1135 15.5656 23.4043 14.7211 22.9064L10.4423 20.3964C10.0405 20.1647 9.58195 20.0496 9.11828 20.0639C8.65461 20.0783 8.20412 20.2215 7.81733 20.4777L6.34171 14.9777C6.1843 14.3432 5.79041 13.793 5.24063 13.4394C4.69085 13.0859 4.02675 12.9558 3.38421 13.0758C3.05195 13.146 2.73745 13.283 2.45983 13.4786C2.1822 13.6741 1.94726 13.9241 1.7693 14.2134C1.59134 14.5026 1.47407 14.825 1.42463 15.1609C1.37519 15.4969 1.39461 15.8394 1.48171 16.1677L4.19421 26.2889C4.35656 26.8974 4.69982 27.4423 5.17858 27.8514L8.09296 30.3514C8.2988 30.5273 8.4641 30.7457 8.5775 30.9916C8.69089 31.2375 8.74968 31.505 8.74983 31.7758V32.5008H7.49983C7.33407 32.5008 7.1751 32.5666 7.05789 32.6838C6.94068 32.8011 6.87483 32.96 6.87483 33.1258V38.1258C6.87483 38.2915 6.94068 38.4505 7.05789 38.5677C7.1751 38.6849 7.33407 38.7508 7.49983 38.7508H18.7498C18.9156 38.7508 19.0746 38.6849 19.1918 38.5677C19.309 38.4505 19.3748 38.2915 19.3748 38.1258V33.1258C19.3748 32.96 19.309 32.8011 19.1918 32.6838C19.0746 32.5666 18.9156 32.5008 18.7498 32.5008ZM8.90858 29.4027L5.99421 26.9027C5.70669 26.6574 5.50068 26.3304 5.40358 25.9652L2.69108 15.8445C2.66292 15.7385 2.64904 15.6292 2.64983 15.5195C2.6516 15.2333 2.75119 14.9564 2.93206 14.7346C3.11294 14.5128 3.36422 14.3595 3.64421 14.3002C3.97292 14.2498 4.30857 14.3246 4.5848 14.5098C4.86104 14.6949 5.05776 14.977 5.13608 15.3002L6.85546 21.7058C6.65824 22.2728 6.66724 22.8912 6.88089 23.4523C7.09454 24.0133 7.49915 24.4811 8.02358 24.7733L11.5236 26.7902C11.6673 26.873 11.838 26.8954 11.9983 26.8524C12.1585 26.8094 12.2951 26.7045 12.378 26.5608C12.4608 26.4171 12.4832 26.2463 12.4402 26.0861C12.3972 25.9259 12.2923 25.7893 12.1486 25.7064L8.64858 23.6895C8.35708 23.5314 8.13626 23.2687 8.03052 22.9544C7.92478 22.6401 7.94195 22.2973 8.07858 21.9952C8.18205 21.7886 8.34139 21.6152 8.53849 21.4946C8.73559 21.3741 8.96255 21.3113 9.19358 21.3133C9.4114 21.3128 9.62555 21.3693 9.81483 21.477L14.0886 23.9852C14.7455 24.3722 15.2903 24.9237 15.6693 25.5853C16.0482 26.2469 16.2483 26.9958 16.2498 27.7583V32.5008H9.99983V31.7758C9.9999 31.3249 9.90241 30.8794 9.71404 30.4697C9.52568 30.0601 9.2509 29.6961 8.90858 29.4027ZM18.1248 37.5008H8.12483V33.7508H18.1248V37.5008Z" fill="white"/>
<path d="M29.9998 9.75026V1.87526C30 1.76544 29.9713 1.65751 29.9165 1.56233C29.8617 1.46714 29.7828 1.38807 29.6878 1.33307C29.5928 1.27806 29.4849 1.24908 29.3751 1.24902C29.2653 1.24897 29.1574 1.27785 29.0623 1.33276L28.1716 1.84151C27.1895 2.40411 26.0835 2.71502 24.9521 2.74653C23.8208 2.77805 22.6992 2.52919 21.6873 2.02213L20.2741 1.31588C20.1874 1.27253 20.0917 1.24997 19.9948 1.24997C19.8978 1.24997 19.8021 1.27253 19.7154 1.31588L18.3123 2.01963C17.3003 2.52757 16.1782 2.77708 15.0464 2.74589C13.9145 2.7147 12.8079 2.40378 11.8254 1.84088L10.9373 1.33276C10.8422 1.27785 10.7343 1.24897 10.6245 1.24902C10.5146 1.24908 10.4068 1.27806 10.3117 1.33307C10.2167 1.38807 10.1378 1.46714 10.083 1.56233C10.0283 1.65751 9.99955 1.76544 9.99976 1.87526V9.75026C9.99673 12.5828 10.7651 15.3627 12.2224 17.7916C13.6797 20.2206 15.7709 22.2068 18.2716 23.5371L19.7054 24.3015C19.796 24.3499 19.8971 24.3752 19.9998 24.3752C20.1025 24.3752 20.2036 24.3499 20.2941 24.3015L21.7279 23.5371C24.2287 22.2069 26.32 20.2207 27.7773 17.7917C29.2346 15.3628 30.0029 12.5828 29.9998 9.75026ZM19.9998 23.0421L18.8604 22.434C16.5597 21.2102 14.6356 19.3829 13.2948 17.1483C11.954 14.9138 11.247 12.3562 11.2498 9.75026V2.95213C12.4072 3.60562 13.7076 3.96452 15.0364 3.99721C16.3651 4.02991 17.6816 3.7354 18.8698 3.13963L19.9948 2.57713L21.1285 3.14338C22.3172 3.73886 23.634 4.03287 24.963 3.99952C26.2921 3.96617 27.5925 3.60647 28.7498 2.95213V9.75026C28.7526 12.3563 28.0457 14.9139 26.7049 17.1485C25.3641 19.3831 23.44 21.2103 21.1391 22.434L19.9998 23.0421Z" fill="white"/>
<path d="M27.4999 5.64678C27.4999 5.55348 27.4791 5.46135 27.4389 5.37716C27.3987 5.29297 27.3402 5.21884 27.2676 5.16022C27.195 5.1016 27.1102 5.05998 27.0194 5.0384C26.9287 5.01682 26.8342 5.01584 26.743 5.03553C24.6574 5.48012 22.4827 5.20633 20.5724 4.25865L20.2774 4.11178C20.1901 4.06782 20.0938 4.04492 19.9961 4.04492C19.8984 4.04492 19.8021 4.06782 19.7149 4.11178L19.4261 4.25615C17.5156 5.20513 15.34 5.47961 13.2536 5.0349C13.1627 5.01575 13.0686 5.01714 12.9782 5.03896C12.8878 5.06079 12.8034 5.1025 12.7312 5.16106C12.659 5.21962 12.6008 5.29355 12.5607 5.37747C12.5207 5.46139 12.4999 5.55318 12.4999 5.64615V9.75053C12.4972 12.1299 13.1427 14.4651 14.3669 16.5053C15.5911 18.5456 17.3479 20.2139 19.4486 21.3312L19.7055 21.4687C19.796 21.5169 19.897 21.5422 19.9996 21.5422C20.1021 21.5422 20.2031 21.5169 20.2936 21.4687L20.5511 21.3312C22.6519 20.2139 24.4087 18.5456 25.6329 16.5053C26.8571 14.4651 27.5025 12.1299 27.4999 9.75053V5.64678ZM26.2499 9.75053C26.2522 11.8962 25.6721 14.0022 24.5714 15.8441C23.4707 17.6859 21.8907 19.1944 19.9999 20.2087C18.1091 19.1944 16.5291 17.6859 15.4284 15.8441C14.3277 14.0022 13.7475 11.8962 13.7499 9.75053V6.3924C15.8844 6.68863 18.0587 6.33425 19.9886 5.37553L19.9999 5.36928L20.0149 5.3774C21.9436 6.33573 24.1167 6.6897 26.2499 6.39303V9.75053Z" fill="white"/>
<path d="M23.5356 8.70545L18.7499 13.4911L16.7987 11.5398C16.6808 11.426 16.5229 11.363 16.3591 11.3644C16.1952 11.3658 16.0384 11.4316 15.9226 11.5474C15.8067 11.6633 15.7409 11.8201 15.7395 11.9839C15.7381 12.1478 15.8011 12.3057 15.9149 12.4236L18.3081 14.8167C18.4253 14.9339 18.5842 14.9997 18.7499 14.9997C18.9157 14.9997 19.0746 14.9339 19.1918 14.8167L24.4193 9.5892C24.479 9.53155 24.5266 9.46258 24.5594 9.38633C24.5921 9.31008 24.6094 9.22807 24.6101 9.14508C24.6108 9.06209 24.595 8.97979 24.5636 8.90298C24.5322 8.82617 24.4857 8.75639 24.4271 8.69771C24.3684 8.63902 24.2986 8.59262 24.2218 8.56119C24.145 8.52976 24.0627 8.51395 23.9797 8.51467C23.8967 8.51539 23.8147 8.53263 23.7384 8.56539C23.6622 8.59815 23.5932 8.64576 23.5356 8.70545Z" fill="white"/>
</svg>
