<svg width="40" height="40" viewBox="0 0 40 40" fill="none" xmlns="http://www.w3.org/2000/svg">
<path d="M5.62116 18.7955L4.37116 18.7995L4.42459 35.6745C4.42819 36.503 4.76026 37.2962 5.34794 37.8802C5.93563 38.4641 6.73095 38.7911 7.55944 38.7895L26.3094 38.7302L32.5594 38.7104C33.388 38.7068 34.1812 38.3748 34.7652 37.7871C35.3492 37.1994 35.6763 36.404 35.6746 35.5755L35.6647 32.4505L34.4147 32.4544L34.4246 35.5794C34.4256 36.0765 34.2293 36.5537 33.879 36.9063C33.5286 37.2589 33.0526 37.4582 32.5555 37.4603L28.8038 37.4722C29.2094 36.9307 29.4274 36.2717 29.4246 35.5952L29.3969 26.8452L34.3969 26.8296L34.4009 28.0796L30.6509 28.0914L30.6549 29.3414L34.4049 29.3296L34.4108 31.2046L35.6608 31.2007L35.5818 6.20066C35.579 5.53784 35.3134 4.9032 34.8432 4.43598C34.3731 3.96876 33.7368 3.70712 33.074 3.70847L28.1755 3.7241C27.6507 3.72534 27.1396 3.89188 26.7148 4.20007C26.2901 4.50827 25.9732 4.94245 25.8091 5.44097L25.5815 6.13082L25.5759 4.35738C25.575 4.07704 25.5188 3.79963 25.4106 3.54101C25.3024 3.28239 25.1443 3.04762 24.9454 2.85011L23.9516 1.86269C23.7533 1.66453 23.5177 1.50765 23.2583 1.40115C22.999 1.29465 22.7211 1.24063 22.4408 1.24222L17.4408 1.25785C17.1604 1.25797 16.8828 1.31372 16.6241 1.42186C16.3653 1.53 16.1307 1.68839 15.9336 1.88785L14.9462 2.88175C14.7486 3.08056 14.5921 3.31634 14.4856 3.57563C14.3792 3.83492 14.3248 4.11263 14.3257 4.39292L14.3313 6.16636L14.0993 5.47777C13.9321 4.98033 13.6125 4.5482 13.1858 4.24273C12.759 3.93726 12.2469 3.77397 11.7222 3.77605L6.82374 3.79167C6.16094 3.79453 5.52633 4.06016 5.05912 4.53029C4.59192 5.00043 4.33026 5.63668 4.33155 6.29949L4.3628 16.2995L4.36678 17.5495L5.61678 17.5455L5.6128 16.2955C5.6081 13.9756 6.52385 11.7486 8.15912 10.103C9.79439 8.45745 12.0156 7.52777 14.3355 7.51792L19.3355 7.5023C21.6553 7.4976 23.8823 8.41325 25.5278 10.0484C27.1734 11.6835 28.1031 13.9046 28.1132 16.2243L28.1428 25.5993L5.6428 25.6705L5.62116 18.7955ZM5.62506 11.4136V6.25003C5.62546 5.91863 5.75728 5.60092 5.99161 5.36658C6.22595 5.13225 6.54366 5.00043 6.87506 5.00003C7.10789 5.00006 7.3348 5.07333 7.52367 5.20948C7.71254 5.34563 7.85379 5.53775 7.92741 5.75863L8.68522 8.03207C7.42007 8.91049 6.37319 10.0673 5.62506 11.4136ZM9.78178 7.36925L9.11334 5.36371C9.07174 5.23837 9.01977 5.11673 8.95795 5.00003H11.7735C12.0359 4.99983 12.2917 5.08229 12.5046 5.23571C12.7175 5.38913 12.8766 5.60572 12.9594 5.85472L13.1175 6.32886C11.9528 6.4756 10.8234 6.82786 9.78178 7.36925ZM16.8751 6.25003H15.6251V4.37503C15.6251 4.25894 15.648 4.144 15.6925 4.03676C15.7369 3.92952 15.8021 3.83209 15.8842 3.75003L16.8751 2.75917V6.25003ZM21.8751 6.25003H18.1251V5.00003H21.8751V6.25003ZM21.8751 3.75003H18.1251V2.50003H21.8751V3.75003ZM26.3054 37.4802L7.55538 37.5395C7.05827 37.5405 6.58107 37.3443 6.22845 36.9939C5.87583 36.6435 5.67659 36.1675 5.67444 35.6704L5.65467 29.4204L7.3542 29.415L6.97491 30.9532C6.92715 31.1667 6.90592 31.3853 6.9117 31.604C6.91354 32.1842 7.14576 32.7399 7.5573 33.1488C7.96883 33.5577 8.52596 33.7864 9.10612 33.7846C9.68628 33.7828 10.2419 33.5505 10.6509 33.139C11.0598 32.7275 11.2885 32.1704 11.2867 31.5902C11.2912 31.3714 11.2685 31.1529 11.2193 30.9396L10.8302 29.4041L28.1547 29.3494L28.1744 35.5994C28.1754 36.0965 27.9792 36.5737 27.6288 36.9262C27.2784 37.2788 26.8025 37.478 26.3054 37.4802ZM8.12506 31.5625C8.11994 31.446 8.1293 31.3293 8.15295 31.215L8.61303 29.375H9.51209L9.97209 31.215C10.1244 31.8243 9.73772 32.5 9.06256 32.5C8.81401 32.4998 8.5757 32.4009 8.39995 32.2251C8.22419 32.0494 8.12533 31.8111 8.12506 31.5625ZM34.3751 25.625H32.5001V16.25C32.4993 14.5553 32.0678 12.8886 31.2463 11.4063C30.4248 9.92406 29.24 8.67485 27.8033 7.77597C28.6639 7.99581 29.4855 8.34643 30.2397 8.81558C30.2489 8.82121 30.2581 8.8266 30.2674 8.83183C31.5276 9.61569 32.5665 10.7087 33.2854 12.007C34.0044 13.3054 34.3794 14.7659 34.3751 16.25V25.625ZM32.0728 5.75785C32.1465 5.53713 32.2878 5.34519 32.4767 5.20919C32.6655 5.07319 32.8923 5.00002 33.1251 5.00003C33.4565 5.00043 33.7742 5.13225 34.0085 5.36658C34.2428 5.60092 34.3747 5.91863 34.3751 6.25003V11.3926C33.628 10.0507 32.5813 8.8993 31.3165 8.028L32.0728 5.75785ZM27.0406 5.85457C27.1235 5.60559 27.2826 5.38903 27.4955 5.23564C27.7084 5.08225 27.9642 4.99981 28.2266 5.00003H31.0421C30.9804 5.11659 30.9285 5.23808 30.8869 5.36324L30.2188 7.36769C29.1762 6.82826 28.0466 6.47716 26.8819 6.33058L27.0406 5.85457ZM24.3751 6.25003H23.1251V2.75886L24.1159 3.75003C24.1981 3.83207 24.2632 3.9295 24.3077 4.03674C24.3522 4.14398 24.3751 4.25894 24.3751 4.37503V6.25003ZM24.6746 7.77347C26.5546 8.2586 28.2204 9.35421 29.4105 10.8884C30.6006 12.4225 31.2476 14.3084 31.2501 16.25V25.625H29.3751V16.25C29.3743 14.5545 28.9425 12.8871 28.1203 11.4043C27.298 9.92154 26.1123 8.67213 24.6746 7.77347ZM28.1468 26.8492L28.1507 28.0992L5.65069 28.1703L5.6467 26.9203L28.1468 26.8492ZM24.4124 31.861L18.1624 31.8807C17.831 31.8822 17.5137 32.015 17.2801 32.2501C17.0465 32.4852 16.9157 32.8033 16.9163 33.1347L16.9223 35.0097C16.9237 35.3411 17.0565 35.6585 17.2916 35.8921C17.5267 36.1257 17.8448 36.2565 18.1762 36.2558L24.4262 36.236C24.7577 36.2346 25.075 36.1018 25.3086 35.8667C25.5422 35.6316 25.673 35.3135 25.6723 34.9821L25.6664 33.1071C25.6649 32.7757 25.5321 32.4584 25.2971 32.2249C25.062 31.9913 24.7439 31.8605 24.4126 31.8611L24.4124 31.861ZM24.4223 34.986L18.1723 35.0057L18.1664 33.1307L24.4164 33.111L24.4231 34.986H24.4223ZM17.5001 20.625C17.7804 20.6258 18.0581 20.571 18.3171 20.4637C18.5761 20.3564 18.8113 20.1988 19.009 20L21.8751 17.1339C22.0732 16.9358 22.2304 16.7005 22.3376 16.4416C22.4449 16.1827 22.5001 15.9053 22.5001 15.625C22.5001 15.3448 22.4449 15.0673 22.3376 14.8084C22.2304 14.5495 22.0732 14.3143 21.8751 14.1161L19.009 11.25C18.8108 11.0519 18.5756 10.8947 18.3167 10.7875C18.0578 10.6802 17.7803 10.625 17.5001 10.625C17.2198 10.625 16.9423 10.6802 16.6834 10.7875C16.4245 10.8947 16.1893 11.0519 15.9912 11.25L13.1251 14.1161C12.9269 14.3143 12.7697 14.5495 12.6625 14.8084C12.5552 15.0673 12.5001 15.3448 12.5001 15.625C12.5001 15.9053 12.5552 16.1827 12.6625 16.4416C12.7697 16.7005 12.9269 16.9358 13.1251 17.1339L15.9912 20C16.1888 20.1988 16.424 20.3564 16.683 20.4637C16.942 20.571 17.2197 20.6258 17.5001 20.625ZM13.7501 15.625C13.7498 15.5089 13.7725 15.3939 13.8169 15.2866C13.8614 15.1793 13.9266 15.0819 14.009 15L16.8751 12.1339C16.9571 12.0519 17.0546 11.9867 17.1618 11.9423C17.269 11.8979 17.384 11.875 17.5001 11.875C17.6161 11.875 17.7311 11.8979 17.8383 11.9423C17.9456 11.9867 18.043 12.0519 18.1251 12.1339L20.9912 15C21.0732 15.0821 21.1383 15.1795 21.1828 15.2868C21.2272 15.394 21.2501 15.509 21.2501 15.625C21.2501 15.7411 21.2272 15.856 21.1828 15.9633C21.1383 16.0705 21.0732 16.168 20.9912 16.25L18.1251 19.1161C18.043 19.1982 17.9456 19.2633 17.8383 19.3077C17.7311 19.3522 17.6161 19.375 17.5001 19.375C17.384 19.375 17.269 19.3522 17.1618 19.3077C17.0546 19.2633 16.9571 19.1982 16.8751 19.1161L14.009 16.25C13.9266 16.1681 13.8614 16.0707 13.8169 15.9635C13.7725 15.8562 13.7498 15.7412 13.7501 15.625ZM16.8751 16.875H15.6251V14.375H16.8751V16.875ZM19.3751 16.875H18.1251V14.375H19.3751V16.875Z" fill="white"/>
</svg>
