<svg width="40" height="40" viewBox="0 0 40 40" fill="none" xmlns="http://www.w3.org/2000/svg">
<g clip-path="url(#clip0)">
<path d="M39.2454 6.07923L39.7721 5.55259C40.0772 5.24752 40.0772 4.75283 39.7721 4.44768C39.467 4.14269 38.9723 4.14269 38.6672 4.44768L38.1405 4.97432L37.6142 4.44799C37.4677 4.30151 37.269 4.21917 37.0618 4.21917H36.2025L32.2122 0.228825C32.0656 0.0823428 31.8669 0 31.6598 0H2.81466C1.26327 0 0.00109863 1.26209 0.00109863 2.81356V17.4541C0.00109863 19.0055 1.26327 20.2677 2.81466 20.2677H9.62082L5.04393 24.8446C4.51253 25.376 4.21987 26.0826 4.21987 26.8341C4.21987 27.5856 4.51253 28.2922 5.04393 28.8236L15.3963 39.176C15.9277 39.7074 16.6342 40.0001 17.3858 40.0001C18.1374 40.0001 18.8439 39.7074 19.3753 39.176L27.1289 31.4225C27.434 31.1174 27.434 30.6228 27.1289 30.3176C26.8238 30.0127 26.3291 30.0126 26.0241 30.3176L18.2704 38.0711C18.0342 38.3074 17.7199 38.4375 17.3858 38.4375C17.0517 38.4375 16.7374 38.3074 16.5012 38.0711L6.14876 27.7187C5.91251 27.4825 5.78235 27.1683 5.78235 26.8341C5.78235 26.4999 5.91251 26.1858 6.14876 25.9495L26.3165 5.78181H36.7383L37.0358 6.0793L35.2292 7.88584C34.9232 7.73913 34.5808 7.65686 34.2194 7.65686C32.9271 7.65686 31.8757 8.70826 31.8757 10.0006C31.8757 11.2929 32.9271 12.3443 34.2194 12.3443C35.5117 12.3443 36.5631 11.2929 36.5631 10.0006C36.5631 9.63918 36.4808 9.29669 36.3341 8.99075L38.1406 7.18421L38.4381 7.48171V17.9035L30.9957 25.346C30.6906 25.651 30.6906 26.1457 30.9957 26.4509C31.3008 26.7559 31.7955 26.7559 32.1006 26.4509L39.7718 18.7796C39.9183 18.6331 40.0007 18.4344 40.0007 18.2272V7.15796C40.0007 6.95078 39.9183 6.75211 39.7718 6.60555L39.2454 6.07923ZM14.0305 14.0182C13.5996 14.0182 13.2491 13.6677 13.2491 13.2367C13.2491 12.8057 13.5996 12.4552 14.0305 12.4552C14.4615 12.4552 14.812 12.8057 14.812 13.2367C14.812 13.6676 14.4615 14.0182 14.0305 14.0182ZM25.9929 4.21925C25.7857 4.21925 25.5869 4.30159 25.4405 4.44807L16.3551 13.5334C16.3675 13.4361 16.3746 13.3372 16.3746 13.2366C16.3746 11.9442 15.3231 10.8926 14.0306 10.8926C12.7382 10.8926 11.6867 11.9442 11.6867 13.2366C11.6867 14.5291 12.7381 15.5806 14.0306 15.5806C14.1312 15.5806 14.2301 15.5735 14.3273 15.5611L11.1834 18.7051H2.81466C2.12482 18.7051 1.56358 18.1438 1.56358 17.454V2.81356C1.56358 2.12372 2.12482 1.56248 2.81466 1.56248H31.3361L33.9929 4.21925H25.9929ZM34.2194 10.7817C33.7886 10.7817 33.4382 10.4312 33.4382 10.0004C33.4382 9.56965 33.7886 9.21919 34.2194 9.21919C34.3977 9.21919 34.5618 9.27989 34.6934 9.38083C34.7141 9.40786 34.7361 9.43426 34.7608 9.45895C34.7855 9.48364 34.8119 9.50567 34.8389 9.52637C34.9399 9.65801 35.0006 9.82207 35.0006 10.0003C35.0007 10.4312 34.6502 10.7817 34.2194 10.7817Z" fill="white"/>
<path d="M25.9835 23.1117C26.1907 23.1117 26.3894 23.0294 26.5359 22.8829L28.3036 21.1151C28.6087 20.81 28.6087 20.3153 28.3036 20.0102C27.9985 19.7052 27.5038 19.7052 27.1988 20.0102L25.9835 21.2255L22.1165 17.3586C21.8115 17.0536 21.3167 17.0536 21.0116 17.3586C20.7066 17.6637 20.7066 18.1584 21.0116 18.4635L25.4311 22.8829C25.5776 23.0294 25.7764 23.1117 25.9835 23.1117Z" fill="white"/>
<path d="M32.0603 16.2536C31.7552 15.9486 31.2605 15.9486 30.9554 16.2536L29.961 17.248L28.8562 16.1432L29.8506 15.1488C30.1556 14.8438 30.1556 14.3491 29.8506 14.0439C29.5455 13.7389 29.0508 13.7389 28.7456 14.0439L27.7513 15.0383L26.6464 13.9335L27.6408 12.9391C27.9459 12.634 27.946 12.1393 27.6408 11.8342C27.3357 11.5293 26.8411 11.5292 26.536 11.8342L24.9892 13.381C24.8427 13.5274 24.7604 13.7262 24.7604 13.9334C24.7604 14.1406 24.8427 14.3392 24.9892 14.4858L29.4086 18.9051C29.5611 19.0576 29.7611 19.1339 29.961 19.1339C30.1609 19.1339 30.3609 19.0576 30.5134 18.9051L32.0602 17.3583C32.3654 17.0533 32.3654 16.5587 32.0603 16.2536Z" fill="white"/>
<path d="M23.4195 25.2368C23.8038 25.4327 24.2743 25.2797 24.4703 24.8953C24.6661 24.5109 24.5132 24.0405 24.1287 23.8446L18.2731 20.8615C17.9715 20.7079 17.6053 20.7659 17.366 21.0052C17.1268 21.2445 17.0687 21.6107 17.2224 21.9122L20.2055 27.7678C20.3434 28.0388 20.6177 28.1947 20.9022 28.1946C21.0215 28.1946 21.1427 28.1672 21.2562 28.1093C21.6406 27.9135 21.7935 27.4431 21.5977 27.0586L21.3582 26.5883L22.9494 24.9972L23.4195 25.2368ZM20.6123 25.1245L19.7058 23.3449L21.4855 24.2516L20.6123 25.1245Z" fill="white"/>
<path d="M15.9297 31.2798C15.6247 31.5848 15.6246 32.0795 15.9297 32.3847C16.0823 32.5372 16.2822 32.6135 16.4822 32.6135C16.6821 32.6135 16.8821 32.5372 17.0346 32.3847L18.1395 31.2798C19.0533 30.366 19.0533 28.8791 18.1395 27.9653C17.2709 27.0967 15.8851 27.0543 14.9651 27.8368C14.9366 27.8585 14.9087 27.8814 14.8827 27.9075L14.8249 27.9653C14.6773 28.1128 14.4812 28.1941 14.2725 28.1941C14.0638 28.1941 13.8677 28.1128 13.7201 27.9653C13.4155 27.6606 13.4155 27.165 13.7201 26.8603L14.8249 25.7555C15.13 25.4504 15.1301 24.9557 14.8249 24.6506C14.5198 24.3457 14.0252 24.3456 13.7201 24.6506L12.6152 25.7554C11.7014 26.6692 11.7014 28.1562 12.6152 29.0701C13.0579 29.5127 13.6464 29.7565 14.2724 29.7565C14.8976 29.7565 15.4854 29.5134 15.928 29.0716C15.9286 29.0711 15.9292 29.0706 15.9297 29.0701C16.2343 28.7654 16.73 28.7654 17.0346 29.0701C17.1821 29.2177 17.2634 29.4138 17.2634 29.6224C17.2634 29.8312 17.1821 30.0273 17.0346 30.1748L15.9297 31.2798Z" fill="white"/>
<path d="M13.3856 5.04342C13.0099 4.83139 12.5333 4.96389 12.3212 5.33966L7.28222 14.2657C7.07012 14.6414 7.20269 15.1179 7.57847 15.33C7.69987 15.3985 7.83167 15.4311 7.96182 15.4311C8.23448 15.4311 8.49924 15.2881 8.64283 15.0338L13.6818 6.10778C13.8939 5.732 13.7614 5.25545 13.3856 5.04342Z" fill="white"/>
<path d="M9.77948 7.0305C9.77948 5.73801 8.72799 4.68652 7.43549 4.68652C6.14299 4.68652 5.09143 5.73801 5.09143 7.0305C5.09143 8.323 6.14291 9.37456 7.43541 9.37456C8.72791 9.37456 9.77948 8.323 9.77948 7.0305ZM6.65393 7.0305C6.65393 6.59957 7.00448 6.24902 7.43541 6.24902C7.86635 6.24902 8.2169 6.59957 8.2169 7.0305C8.2169 7.46152 7.86635 7.81207 7.43541 7.81207C7.00448 7.81207 6.65393 7.46152 6.65393 7.0305Z" fill="white"/>
<path d="M29.0612 27.6025C28.8549 27.6025 28.6541 27.6861 28.5088 27.8315C28.3635 27.9768 28.2799 28.1783 28.2799 28.3838C28.2799 28.5893 28.3635 28.7909 28.5088 28.9361C28.6541 29.0814 28.8549 29.165 29.0612 29.165C29.2666 29.165 29.4682 29.0815 29.6135 28.9361C29.7588 28.7909 29.8424 28.5893 29.8424 28.3838C29.8424 28.1783 29.7588 27.9768 29.6135 27.8315C29.4682 27.6862 29.2666 27.6025 29.0612 27.6025Z" fill="white"/>
</g>
<defs>
<clipPath id="clip0">
<rect width="40" height="40" fill="white"/>
</clipPath>
</defs>
</svg>
