<svg width="45" height="45" viewBox="0 0 45 45" fill="none" xmlns="http://www.w3.org/2000/svg">
<path d="M25.3125 36.5625H32.3438V37.9688H25.3125V36.5625Z" fill="white"/>
<path d="M25.3125 33.75H32.3438V35.1562H25.3125V33.75Z" fill="white"/>
<path d="M37.2656 37.9688C37.6828 37.9688 38.0907 37.845 38.4375 37.6133C38.7844 37.3815 39.0548 37.052 39.2144 36.6666C39.3741 36.2812 39.4159 35.857 39.3345 35.4479C39.2531 35.0387 39.0522 34.6628 38.7572 34.3678C38.4622 34.0728 38.0863 33.8719 37.6771 33.7905C37.268 33.7091 36.8438 33.7509 36.4584 33.9106C36.073 34.0702 35.7435 34.3406 35.5117 34.6875C35.28 35.0344 35.1562 35.4422 35.1562 35.8594C35.1562 36.4188 35.3785 36.9553 35.7741 37.3509C36.1697 37.7465 36.7062 37.9688 37.2656 37.9688ZM37.2656 35.1563C37.4047 35.1563 37.5406 35.1975 37.6563 35.2748C37.7719 35.352 37.862 35.4618 37.9152 35.5903C37.9684 35.7188 37.9824 35.8602 37.9552 35.9966C37.9281 36.1329 37.8611 36.2582 37.7628 36.3566C37.6645 36.4549 37.5392 36.5219 37.4028 36.549C37.2664 36.5761 37.125 36.5622 36.9966 36.509C36.8681 36.4558 36.7583 36.3656 36.681 36.25C36.6037 36.1344 36.5625 35.9984 36.5625 35.8594C36.5625 35.6729 36.6366 35.4941 36.7684 35.3622C36.9003 35.2303 37.0791 35.1563 37.2656 35.1563Z" fill="white"/>
<path d="M20.3906 37.9688C20.8078 37.9688 21.2157 37.845 21.5625 37.6133C21.9094 37.3815 22.1798 37.052 22.3394 36.6666C22.4991 36.2812 22.5409 35.857 22.4595 35.4479C22.3781 35.0387 22.1772 34.6628 21.8822 34.3678C21.5872 34.0728 21.2113 33.8719 20.8022 33.7905C20.393 33.7091 19.9688 33.7509 19.5834 33.9106C19.198 34.0702 18.8685 34.3406 18.6367 34.6875C18.405 35.0344 18.2812 35.4422 18.2812 35.8594C18.2813 36.4188 18.5035 36.9553 18.8991 37.3509C19.2947 37.7465 19.8312 37.9688 20.3906 37.9688ZM20.3906 35.1563C20.5297 35.1563 20.6656 35.1975 20.7813 35.2748C20.8969 35.352 20.987 35.4618 21.0402 35.5903C21.0935 35.7188 21.1074 35.8602 21.0802 35.9966C21.0531 36.1329 20.9862 36.2582 20.8878 36.3566C20.7895 36.4549 20.6642 36.5219 20.5278 36.549C20.3914 36.5761 20.25 36.5622 20.1216 36.509C19.9931 36.4558 19.8833 36.3656 19.806 36.25C19.7287 36.1344 19.6875 35.9984 19.6875 35.8594C19.6875 35.6729 19.7616 35.4941 19.8934 35.3622C20.0253 35.2303 20.2042 35.1563 20.3906 35.1563Z" fill="white"/>
<path d="M12.6562 15.4687C12.6562 14.6344 12.4088 13.8187 11.9453 13.1249C11.4817 12.4312 10.8228 11.8904 10.0519 11.5711C9.28107 11.2518 8.43282 11.1683 7.61446 11.3311C6.7961 11.4938 6.0444 11.8956 5.45439 12.4856C4.86439 13.0756 4.4626 13.8274 4.29981 14.6457C4.13703 15.4641 4.22058 16.3123 4.53988 17.0832C4.85919 17.8541 5.39992 18.5129 6.09369 18.9765C6.78746 19.4401 7.60311 19.6875 8.4375 19.6875C9.55604 19.6864 10.6284 19.2415 11.4194 18.4506C12.2103 17.6597 12.6551 16.5873 12.6562 15.4687ZM5.625 15.4687C5.625 14.9125 5.78995 14.3687 6.09899 13.9062C6.40803 13.4437 6.84728 13.0832 7.3612 12.8703C7.87512 12.6575 8.44062 12.6018 8.98619 12.7103C9.53176 12.8188 10.0329 13.0867 10.4262 13.48C10.8196 13.8733 11.0874 14.3745 11.196 14.9201C11.3045 15.4656 11.2488 16.0311 11.0359 16.545C10.823 17.059 10.4625 17.4982 10 17.8073C9.53752 18.1163 8.99376 18.2812 8.4375 18.2812C7.69158 18.2812 6.97621 17.9849 6.44876 17.4575C5.92132 16.93 5.625 16.2147 5.625 15.4687Z" fill="white"/>
<path d="M42.1874 42.1874V33.0468C42.186 32.6835 42.089 32.3271 41.9061 32.0132C42.2905 31.7683 42.5851 31.4055 42.7461 30.9792C42.907 30.5528 42.9255 30.0858 42.7989 29.648C42.6722 29.2102 42.4072 28.8253 42.0435 28.5507C41.6797 28.2761 41.2369 28.1268 40.7811 28.1249C40.3759 28.1257 39.9798 28.2455 39.6421 28.4694L38.6436 25.8046L38.0811 23.5616C38.0053 23.2576 37.8297 22.9877 37.5824 22.7952C37.3351 22.6028 37.0304 22.4988 36.7171 22.4999H33.0468V20.3905C33.0468 20.2041 32.9727 20.0252 32.8408 19.8934C32.709 19.7615 32.5301 19.6874 32.3436 19.6874H25.3124C25.1259 19.6874 24.9471 19.7615 24.8152 19.8934C24.6833 20.0252 24.6093 20.2041 24.6093 20.3905V22.4999H20.9389C20.6256 22.4988 20.3209 22.6028 20.0736 22.7952C19.8263 22.9877 19.6507 23.2576 19.5749 23.5616L19.0124 25.8046L18.0139 28.4694C17.6762 28.2455 17.2801 28.1257 16.8749 28.1249C16.4192 28.1268 15.9763 28.2761 15.6126 28.5507C15.2488 28.8253 14.9838 29.2102 14.8572 29.648C14.7305 30.0858 14.749 30.5528 14.9099 30.9792C15.0709 31.4055 15.3656 31.7683 15.7499 32.0132C15.567 32.3271 15.47 32.6835 15.4686 33.0468V42.1874H12.6561V40.7812C12.655 40.4085 12.5065 40.0515 12.243 39.788C11.9795 39.5245 11.6225 39.376 11.2499 39.3749H9.14051V22.4648C10.9353 22.2844 12.5922 21.4211 13.7684 20.0534C14.9446 18.6857 15.5501 16.9183 15.4598 15.1167C15.3695 13.3151 14.5902 11.6172 13.2832 10.374C11.9761 9.13079 10.2413 8.4375 8.43739 8.4375C6.63352 8.4375 4.89865 9.13079 3.59159 10.374C2.28453 11.6172 1.50526 13.3151 1.41495 15.1167C1.32465 16.9183 1.93021 18.6857 3.1064 20.0534C4.2826 21.4211 5.93944 22.2844 7.73426 22.4648V39.3749H5.62489C5.25227 39.376 4.89523 39.5245 4.63175 39.788C4.36826 40.0515 4.21975 40.4085 4.21864 40.7812V42.1874H1.40614V43.5937H43.5936V42.1874H42.1874ZM2.81239 15.4687C2.81239 14.3561 3.14229 13.2686 3.76037 12.3436C4.37845 11.4186 5.25696 10.6976 6.28479 10.2718C7.31263 9.8461 8.44362 9.7347 9.53477 9.95174C10.6259 10.1688 11.6282 10.7045 12.4149 11.4912C13.2015 12.2779 13.7373 13.2801 13.9543 14.3713C14.1713 15.4624 14.06 16.5934 13.6342 17.6213C13.2085 18.6491 12.4875 19.5276 11.5625 20.1457C10.6374 20.7638 9.5499 21.0937 8.43739 21.0937C6.94617 21.0916 5.51662 20.4983 4.46217 19.4439C3.40772 18.3894 2.81443 16.9599 2.81239 15.4687ZM11.2499 42.1874H5.62489V40.7812H11.2499V42.1874ZM26.0155 21.0937H31.6405V22.4999H26.0155V21.0937ZM20.9389 23.9062H36.7171L37.0686 25.3124H20.5874L20.9389 23.9062ZM20.1725 26.7187H37.4835L39.0655 30.9374H26.6202C26.4667 30.3341 26.1165 29.7991 25.625 29.417C25.1335 29.0349 24.5287 28.8275 23.9061 28.8275C23.2836 28.8275 22.6788 29.0349 22.1873 29.417C21.6958 29.7991 21.3456 30.3341 21.1921 30.9374H18.5905L20.1725 26.7187ZM25.1155 30.9374H22.6968C22.8183 30.7238 22.9942 30.5463 23.2066 30.4227C23.4191 30.2992 23.6604 30.2341 23.9061 30.2341C24.1519 30.2341 24.3932 30.2992 24.6056 30.4227C24.8181 30.5463 24.994 30.7238 25.1155 30.9374ZM16.1718 30.2343C16.1718 30.0478 16.2458 29.869 16.3777 29.7371C16.5096 29.6052 16.6884 29.5312 16.8749 29.5312C16.9984 29.5321 17.1194 29.5658 17.2257 29.6288C17.3319 29.6918 17.4195 29.7818 17.4796 29.8898L17.1069 30.8952C17.0326 30.9228 16.9541 30.9371 16.8749 30.9374C16.6884 30.9374 16.5096 30.8633 16.3777 30.7315C16.2458 30.5996 16.1718 30.4208 16.1718 30.2343ZM19.6874 42.1874H16.8749V40.6546C17.1004 40.7365 17.3381 40.7793 17.578 40.7812H19.6874V42.1874ZM36.5624 42.1874H21.0936V40.7812H36.5624V42.1874ZM40.7811 42.1874H37.9686V40.7812H40.078C40.3179 40.7793 40.5557 40.7365 40.7811 40.6546V42.1874ZM40.7811 38.6718C40.7811 38.8583 40.7071 39.0371 40.5752 39.169C40.4433 39.3008 40.2645 39.3749 40.078 39.3749H17.578C17.3915 39.3749 17.2127 39.3008 17.0808 39.169C16.949 39.0371 16.8749 38.8583 16.8749 38.6718V33.0468C16.8749 32.8603 16.949 32.6815 17.0808 32.5496C17.2127 32.4177 17.3915 32.3437 17.578 32.3437H40.078C40.2645 32.3437 40.4433 32.4177 40.5752 32.5496C40.7071 32.6815 40.7811 32.8603 40.7811 33.0468V38.6718ZM40.7811 30.9374C40.7019 30.9371 40.6234 30.9228 40.5491 30.8952L40.1764 29.8898C40.2354 29.7809 40.3227 29.69 40.4292 29.6268C40.5357 29.5637 40.6573 29.5306 40.7811 29.5312C40.9676 29.5312 41.1465 29.6052 41.2783 29.7371C41.4102 29.869 41.4843 30.0478 41.4843 30.2343C41.4843 30.4208 41.4102 30.5996 41.2783 30.7315C41.1465 30.8633 40.9676 30.9374 40.7811 30.9374Z" fill="white"/>
</svg>
