<svg width="25" height="25" viewBox="0 0 25 25" fill="none" xmlns="http://www.w3.org/2000/svg">
<path d="M12.5 25C19.4036 25 25 19.4036 25 12.5C25 5.59644 19.4036 0 12.5 0C5.59644 0 0 5.59644 0 12.5C0 19.4036 5.59644 25 12.5 25Z" fill="#039BE5"/>
<path d="M5.71982 12.2291L17.7719 7.58226C18.3313 7.38018 18.8198 7.71872 18.6386 8.56456L18.6396 8.56351L16.5875 18.2312C16.4354 18.9166 16.0282 19.0833 15.4584 18.7604L12.3334 16.4573L10.8261 17.9093C10.6594 18.076 10.5188 18.2166 10.1959 18.2166L10.4177 15.0364L16.2094 9.80414C16.4615 9.58226 16.1532 9.45726 15.8209 9.6781L8.66357 14.1843L5.57815 13.2218C4.90836 13.0093 4.89378 12.5521 5.71982 12.2291Z" fill="white"/>
</svg>
