<svg width="25" height="25" viewBox="0 0 25 25" fill="none" xmlns="http://www.w3.org/2000/svg">
<path d="M12.5 25C19.4036 25 25 19.4036 25 12.5C25 5.59644 19.4036 0 12.5 0C5.59644 0 0 5.59644 0 12.5C0 19.4036 5.59644 25 12.5 25Z" fill="#75B73B"/>
<path d="M17.5899 7.41318C16.8651 7.23193 15.7993 6.60595 15.1094 6.35502C12.4158 5.51328 8.79629 6.18666 7.78618 9.30117C7.702 9.38535 7.53364 9.38535 7.44946 9.38535C5.42925 11.7422 6.77607 14.6042 6.60772 17.2136C6.55024 18.1335 6.06655 18.9469 5.44409 19.6349L10.6825 24.8678C11.2759 24.9542 11.8826 24.9998 12.5 24.9998C18.6736 24.9998 23.8014 20.524 24.8167 14.6404L17.5899 7.41318Z" fill="#52891D"/>
<path d="M12.1502 5.29546C8.34018 5.47671 5.33359 8.64975 5.34506 12.464C5.34858 13.6257 5.62905 14.7222 6.12387 15.6913L5.36425 19.3785C5.32319 19.578 5.50307 19.7526 5.70122 19.7057L9.31425 18.8497C10.2425 19.3122 11.2852 19.5791 12.3886 19.596C16.2828 19.6555 19.5297 16.5635 19.6513 12.6707C19.7812 8.498 16.3374 5.09599 12.1502 5.29546ZM16.4614 16.4033C15.4033 17.4614 13.9964 18.0441 12.4999 18.0441C11.6238 18.0441 10.7848 17.8475 10.0065 17.4599L9.50346 17.2092L7.28813 17.7339L7.75439 15.4705L7.50659 14.985C7.10249 14.1936 6.8976 13.3381 6.8976 12.4418C6.8976 10.9453 7.48037 9.53852 8.53842 8.48037C9.58706 7.43164 11.0169 6.83955 12.5 6.83955C13.9963 6.83955 15.4033 7.42231 16.4613 8.48037C17.5194 9.53842 18.1021 10.9454 18.1021 12.4416C18.1022 13.9248 17.5101 15.3546 16.4614 16.4033Z" fill="white"/>
<path d="M15.9724 13.9935L14.5865 13.5956C14.4044 13.5434 14.2081 13.5951 14.0753 13.7303L13.7364 14.0756C13.5935 14.2213 13.3767 14.268 13.1875 14.1915C12.5319 13.9261 11.1528 12.6999 10.8008 12.0867C10.699 11.9097 10.7159 11.6886 10.8407 11.527L11.1365 11.1443C11.2524 10.9944 11.2768 10.7928 11.2002 10.6195L10.6171 9.30076C10.4775 8.98494 10.0739 8.89295 9.81014 9.11599C9.42337 9.44319 8.96444 9.94021 8.90873 10.491C8.81034 11.462 9.22684 12.686 10.8014 14.1558C12.6206 15.8539 14.0775 16.0781 15.0262 15.8484C15.5642 15.7181 15.9942 15.1958 16.2654 14.768C16.4505 14.4761 16.3042 14.0888 15.9724 13.9935Z" fill="white"/>
<path d="M17.383 7.2124L16.2979 8.32461C16.3531 8.37563 16.4081 8.42695 16.4615 8.48042C17.5196 9.53847 18.1023 10.9454 18.1023 12.4417C18.1023 13.9248 17.5101 15.3546 16.4615 16.4033C15.4034 17.4614 13.9965 18.0441 12.5001 18.0441C11.6239 18.0441 10.785 17.8475 10.0066 17.4598L9.50359 17.2092L7.28826 17.7339L7.33406 17.5116L5.37244 19.522C5.4157 19.652 5.55334 19.7405 5.70125 19.7055L9.31428 18.8495C10.2426 19.3119 11.2852 19.5789 12.3886 19.5958C16.2828 19.6553 19.5299 16.5633 19.6513 12.6705C19.7184 10.5156 18.8323 8.56626 17.383 7.2124Z" fill="#D1D1D1"/>
<path d="M15.9724 13.9936L14.5865 13.5957C14.4044 13.5435 14.2081 13.5952 14.0753 13.7305L13.7364 14.0757C13.5935 14.2214 13.3767 14.2681 13.1875 14.1916C12.8088 14.0383 12.1889 13.5644 11.6648 13.0732L10.7014 14.0608C10.7344 14.0924 10.7674 14.124 10.8015 14.1559C12.6206 15.854 14.0775 16.0782 15.0262 15.8485C15.5642 15.7183 15.9942 15.1959 16.2654 14.7681C16.4505 14.4763 16.3042 14.089 15.9724 13.9936Z" fill="#D1D1D1"/>
</svg>
