<svg width="58" height="58" fill="none" xmlns="http://www.w3.org/2000/svg"><path d="M42.038 45.062a.813.813 0 01-.58-.243c-.363-.37-.764-.7-1.197-.986a.81.81 0 01.891-1.353c.528.35 1.017.752 1.46 1.203a.81.81 0 01-.579 1.379h.005z" fill="#2747F0"/><path d="M44.324 57.378H13.578a.81.81 0 01-.81-.81v-6.69A8.888 8.888 0 0121.646 41h14.578a.81.81 0 110 1.622H21.646a7.265 7.265 0 00-7.257 7.256v5.879h29.124v-5.879a7.133 7.133 0 00-.196-1.681.812.812 0 01.91-1.012.81.81 0 01.665.626 8.78 8.78 0 01.243 2.064v6.693a.811.811 0 01-.81.81zM28.95 37.913a8.497 8.497 0 118.497-8.497 8.506 8.506 0 01-8.497 8.497zm0-15.372a6.876 6.876 0 106.875 6.875 6.884 6.884 0 00-6.875-6.875z" fill="#2747F0"/><path d="M36.849 57.379H21.054a.81.81 0 01-.81-.811V51.94a.81.81 0 111.62 0v3.817h14.174V51.94a.81.81 0 111.622 0v4.628a.81.81 0 01-.811.81zm16.865-33.974a.81.81 0 01-.377-.093l-4.19-2.202-4.188 2.202a.812.812 0 01-1.177-.854l.8-4.665-3.388-3.306a.81.81 0 01.448-1.384l4.684-.68 2.095-4.245a.843.843 0 011.454 0l2.094 4.244 4.684.681a.81.81 0 01.45 1.383l-3.39 3.304.8 4.664a.81.81 0 01-.799.948v.003zm-4.566-4.022c.131 0 .26.032.377.093l3.113 1.637-.596-3.464a.811.811 0 01.235-.719l2.517-2.454-3.48-.505a.812.812 0 01-.61-.444l-1.556-3.153-1.556 3.15a.812.812 0 01-.61.444l-3.48.505 2.518 2.454a.81.81 0 01.233.718l-.595 3.466 3.113-1.636a.804.804 0 01.377-.094v.002zm-15.582-3.086a.818.818 0 01-.377-.093L29 14l-4.19 2.203a.811.811 0 01-1.176-.855l.8-4.665-3.389-3.303a.81.81 0 01.45-1.384l4.683-.68 2.092-4.242a.844.844 0 011.455 0l2.097 4.244 4.684.68a.811.811 0 01.449 1.383l-3.39 3.303.8 4.666a.809.809 0 01-.799.947zM29 12.275a.81.81 0 01.377.093l3.11 1.636-.596-3.465a.811.811 0 01.234-.718l2.518-2.454-3.477-.502a.811.811 0 01-.61-.445L29 3.265l-1.556 3.152a.812.812 0 01-.61.445l-3.48.505 2.518 2.454a.81.81 0 01.233.718l-.591 3.465 3.112-1.636a.81.81 0 01.374-.093zm-15.581 11.13a.811.811 0 01-.378-.093L8.852 21.11l-4.19 2.2a.81.81 0 01-1.176-.854l.8-4.665-3.389-3.305a.81.81 0 01.45-1.378l4.684-.68 2.094-4.245a.844.844 0 011.454 0l2.095 4.244 4.684.681a.81.81 0 01.448 1.383l-3.388 3.304.8 4.664a.811.811 0 01-.8.948v-.002zm-4.567-4.022c.132 0 .261.032.377.093l3.113 1.637-.595-3.464a.812.812 0 01.233-.719l2.519-2.454-3.48-.505a.812.812 0 01-.61-.444l-1.557-3.153-1.556 3.153a.812.812 0 01-.61.444l-3.48.505 2.513 2.454a.811.811 0 01.239.719l-.596 3.462 3.113-1.636a.803.803 0 01.377-.094v.002z" fill="#2747F0"/></svg>