<svg width="59" height="58" fill="none" xmlns="http://www.w3.org/2000/svg"><path d="M34.625 47.75H44v1.875h-9.375V47.75zm0-3.75H44v1.875h-9.375V44zm15.938 0a2.813 2.813 0 100 5.625 2.813 2.813 0 000-5.625zm0 3.75a.937.937 0 110-1.875.937.937 0 010 1.875zM28.063 44a2.813 2.813 0 100 5.625 2.813 2.813 0 000-5.625zm0 3.75a.937.937 0 110-1.875.937.937 0 010 1.875z" fill="#2747F0"/><path d="M58.063 39.313A2.822 2.822 0 0055.25 36.5a2.75 2.75 0 00-1.519.46L52.4 33.405l-.75-2.99A1.867 1.867 0 0049.831 29h-4.894v-2.813A.938.938 0 0044 25.25h-9.375a.937.937 0 00-.938.938V29h-4.893a1.867 1.867 0 00-1.819 1.416l-.75 2.99-1.331 3.553a2.758 2.758 0 00-1.519-.459 2.813 2.813 0 00-1.5 5.184 2.757 2.757 0 00-.375 1.379V55.25a1.88 1.88 0 001.875 1.875h3.75A1.88 1.88 0 0029 55.25v-1.875h20.625v1.875a1.88 1.88 0 001.875 1.875h3.75a1.88 1.88 0 001.875-1.875V43.062a2.76 2.76 0 00-.375-1.378 2.797 2.797 0 001.313-2.371zm-22.5-12.188h7.5V29h-7.5v-1.875zm-6.77 3.75h21.038l.469 1.875H28.325l.469-1.875zm-1.021 3.75h23.081l2.11 5.625H36.368a3.734 3.734 0 00-7.238 0h-3.468l2.109-5.625zm6.59 5.625h-3.225a1.855 1.855 0 013.225 0zm-11.925-.938a.937.937 0 01.938-.937.932.932 0 01.806.478l-.497 1.34a.9.9 0 01-.309.057.937.937 0 01-.938-.938zm4.688 15.938h-3.75v-2.044c.3.11.618.166.938.169h2.812v1.875zm28.125 0H51.5v-1.875h2.813c.32-.002.636-.06.937-.169v2.044zm0-4.688a.938.938 0 01-.938.938h-30a.937.937 0 01-.937-.938v-7.5a.937.937 0 01.938-.937h30a.938.938 0 01.937.938v7.5zm0-10.312a.9.9 0 01-.31-.056l-.496-1.34a.913.913 0 01.806-.479.938.938 0 010 1.875z" fill="#2747F0"/><path d="M2.75 51.5v-45A3.75 3.75 0 016.5 2.75h26.25A3.75 3.75 0 0136.5 6.5v16.875h1.875V6.5A5.63 5.63 0 0032.75.875H6.5A5.63 5.63 0 00.875 6.5v45A5.63 5.63 0 006.5 57.125h13.125V55.25H6.5a3.75 3.75 0 01-3.75-3.75zm30 3.75h-1.875v1.875h1.875A5.582 5.582 0 0036.125 56L35 54.5a3.715 3.715 0 01-2.25.75z" fill="#2747F0"/><path d="M14.938 50.563a2.812 2.812 0 002.812 2.812h1.875V51.5H17.75a.938.938 0 010-1.875h1.875V47.75H17.75a2.812 2.812 0 00-2.813 2.813zM13.063 4.625h1.874V6.5h-1.874V4.625zm3.75 0h5.625V6.5h-5.625V4.625zM6.5 21.5c0 4.987 7.421 13.392 7.736 13.748a.935.935 0 001.406 0c.312-.356 7.733-8.761 7.733-13.748a8.437 8.437 0 10-16.875 0zm8.438-6.563A6.57 6.57 0 0121.5 21.5c0 3.188-4.238 8.913-6.563 11.688-2.324-2.775-6.562-8.5-6.562-11.688a6.57 6.57 0 016.563-6.563z" fill="#2747F0"/><path d="M14.938 23.375a2.813 2.813 0 100-5.625 2.813 2.813 0 000 5.625zm0-3.75a.937.937 0 110 1.875.937.937 0 010-1.875z" fill="#2747F0"/></svg>