<svg width="60" height="60" fill="none" xmlns="http://www.w3.org/2000/svg"><g clip-path="url(#clip0)" fill="#2747F0"><path d="M56.309 52.928l-8.813-15.264a2.353 2.353 0 011.25-.76 4.682 4.682 0 003.157-2.536 4.681 4.681 0 00.014-4.05 2.352 2.352 0 01.649-2.842 4.682 4.682 0 001.745-3.656 4.682 4.682 0 00-1.745-3.655 2.352 2.352 0 01-.649-2.842 4.681 4.681 0 00-.014-4.05 4.682 4.682 0 00-3.158-2.537 2.352 2.352 0 01-1.817-2.28 4.682 4.682 0 00-1.77-3.643 4.682 4.682 0 00-3.946-.915 2.352 2.352 0 01-2.627-1.264A4.681 4.681 0 0035.41.119a4.682 4.682 0 00-3.953.888 2.352 2.352 0 01-2.915 0A4.683 4.683 0 0024.59.119a4.682 4.682 0 00-3.175 2.515c-.48.98-1.561 1.5-2.627 1.264a4.682 4.682 0 00-3.945.915 4.682 4.682 0 00-1.77 3.644 2.352 2.352 0 01-1.818 2.279 4.682 4.682 0 00-3.158 2.536 4.682 4.682 0 00-.014 4.05c.466.987.2 2.156-.649 2.843A4.682 4.682 0 005.69 23.82c0 1.426.636 2.759 1.745 3.656a2.352 2.352 0 01.649 2.841 4.681 4.681 0 00.014 4.051 4.682 4.682 0 003.158 2.537c.502.118.932.39 1.249.76L3.69 52.927a1.172 1.172 0 001.322 1.717l6.138-1.665 1.627 6.148a1.172 1.172 0 002.147.286l7.52-13.024c.595.551 1.33.945 2.146 1.131a4.683 4.683 0 003.952-.887 2.352 2.352 0 012.915 0 4.68 4.68 0 003.952.887 4.686 4.686 0 002.146-1.131l7.519 13.024a1.172 1.172 0 002.148-.286l1.627-6.148 6.137 1.665a1.171 1.171 0 001.322-1.717zm-41.992 2.853l-1.202-4.54a1.173 1.173 0 00-1.44-.832l-4.533 1.23 6.24-10.809a4.688 4.688 0 001.46 1.997 4.682 4.682 0 003.947.915 2.352 2.352 0 012.135.595l-6.607 11.444zm20.571-10.545a2.349 2.349 0 01-1.982-.445 4.692 4.692 0 00-5.812 0 2.348 2.348 0 01-1.982.445 2.348 2.348 0 01-1.593-1.26 4.69 4.69 0 00-5.236-2.522 2.348 2.348 0 01-1.979-.46 2.349 2.349 0 01-.888-1.827 4.69 4.69 0 00-3.623-4.544 2.348 2.348 0 01-1.584-1.272 2.348 2.348 0 01-.007-2.031 4.69 4.69 0 00-1.294-5.666 2.348 2.348 0 01-.875-1.834c0-.715.32-1.383.875-1.833a4.69 4.69 0 001.294-5.666 2.348 2.348 0 01.007-2.032 2.348 2.348 0 011.584-1.272 4.69 4.69 0 003.623-4.544 2.348 2.348 0 01.888-1.827 2.347 2.347 0 011.98-.46 4.69 4.69 0 005.235-2.52 2.348 2.348 0 011.593-1.262 2.349 2.349 0 011.982.445 4.69 4.69 0 005.812 0 2.349 2.349 0 011.982-.445 2.35 2.35 0 011.593 1.261 4.69 4.69 0 005.236 2.522 2.347 2.347 0 011.98.459c.558.446.882 1.112.887 1.827a4.69 4.69 0 003.624 4.544 2.348 2.348 0 011.584 1.272 2.35 2.35 0 01.007 2.032 4.69 4.69 0 001.293 5.666c.556.45.875 1.118.875 1.833a2.35 2.35 0 01-.875 1.834 4.69 4.69 0 00-1.293 5.666 2.348 2.348 0 01-.008 2.031 2.348 2.348 0 01-1.583 1.273 4.69 4.69 0 00-3.624 4.543 2.348 2.348 0 01-.888 1.828 2.348 2.348 0 01-1.979.459 4.69 4.69 0 00-5.236 2.521 2.349 2.349 0 01-1.593 1.261zm13.437 5.173a1.172 1.172 0 00-1.44.831l-1.201 4.541-6.607-11.444a2.35 2.35 0 012.135-.595 4.682 4.682 0 003.945-.915 4.687 4.687 0 001.46-1.997l6.241 10.81-4.533-1.23z"/><path d="M35.575 32.682a1.17 1.17 0 001.116-1.53l-1.847-5.743 4.871-3.58a1.172 1.172 0 00-.694-2.116h-6.028l-1.88-5.727a1.172 1.172 0 00-2.226 0l-1.88 5.727H20.98a1.172 1.172 0 00-.694 2.117l4.872 3.579-1.848 5.743a1.172 1.172 0 001.802 1.309l4.89-3.53 4.889 3.53c.204.147.445.221.685.221zm-4.89-6.147a1.17 1.17 0 00-1.371 0l-2.68 1.935 1.012-3.147a1.172 1.172 0 00-.422-1.303l-2.671-1.963h3.303c.506 0 .955-.325 1.113-.806L30 18.108l1.03 3.141c.159.482.608.807 1.114.807h3.303l-2.671 1.963a1.172 1.172 0 00-.422 1.303l1.012 3.147-2.68-1.935z"/><path d="M46.406 23.82c0-9.045-7.36-16.405-16.406-16.405s-16.406 7.36-16.406 16.406c0 6.882 4.345 13.081 10.812 15.427a1.172 1.172 0 00.799-2.204c-5.543-2.01-9.267-7.324-9.267-13.223 0-7.754 6.308-14.062 14.062-14.062s14.062 6.308 14.062 14.062c0 5.9-3.724 11.214-9.268 13.224a1.172 1.172 0 00.8 2.203c6.466-2.345 10.812-8.545 10.812-15.427z"/><path d="M30 37.882c-.308 0-.61.125-.828.343-.218.218-.344.52-.344.829 0 .308.126.61.344.828.218.218.52.344.828.344.308 0 .61-.126.829-.344a1.18 1.18 0 00.343-.828c0-.309-.125-.61-.343-.829a1.18 1.18 0 00-.829-.343z"/></g><defs><clipPath id="clip0"><path fill="#fff" d="M0 0h60v60H0z"/></clipPath></defs></svg>