<svg width="58" height="48" fill="none" xmlns="http://www.w3.org/2000/svg"><path d="M10.25 26.813a3.75 3.75 0 100 7.499 3.75 3.75 0 000-7.5zm0 5.625a1.875 1.875 0 110-3.75 1.875 1.875 0 010 3.75zm37.5-5.625a3.75 3.75 0 100 7.499 3.75 3.75 0 000-7.5zm0 5.625a1.875 1.875 0 110-3.751 1.875 1.875 0 010 3.75zM20.563 31.5h16.875v1.875H20.561V31.5zm0-3.75h16.875v1.875H20.561V27.75zm5.625-14.062h5.625v1.874h-5.625v-1.874z" fill="#2747F0"/><path d="M57.125 22.125V20.25a2.821 2.821 0 00-2.813-2.813H50.6l-1.94-6.806-.582-2.315a2.812 2.812 0 00-2.728-2.129h-7.913v-3.75A1.88 1.88 0 0035.563.563H22.437a1.88 1.88 0 00-1.875 1.875v3.75H12.65a2.812 2.812 0 00-2.728 2.128l-.572 2.306-1.95 6.816H3.687A2.821 2.821 0 00.876 20.25v1.875a2.805 2.805 0 001.322 2.372A4.665 4.665 0 00.875 27.75V39a2.8 2.8 0 00.938 2.081v3.544a2.821 2.821 0 002.812 2.813h7.5a2.821 2.821 0 002.813-2.813v-2.813h28.124v2.813a2.821 2.821 0 002.813 2.813h7.5a2.821 2.821 0 002.813-2.813v-3.544A2.8 2.8 0 0057.124 39V27.75a4.665 4.665 0 00-1.322-3.253 2.805 2.805 0 001.322-2.372zM22.437 2.437h13.125v3.75H22.438v-3.75zM11.742 8.776a.938.938 0 01.909-.713h32.7a.938.938 0 01.91.713l.29 1.162h-35.1l.29-1.162zm-.788 3.037h36.094l3.206 11.25H23.291a5.618 5.618 0 00-11.082 0H7.747l3.206-11.25zm10.416 11.25h-7.24a3.734 3.734 0 017.238 0zM2.75 20.25a.937.937 0 01.938-.938h3.178l-1.07 3.75H3.688a.938.938 0 01-.937-.937V20.25zm10.313 24.375a.938.938 0 01-.938.938h-7.5a.938.938 0 01-.938-.938v-2.813h9.376v2.813zm41.25 0a.938.938 0 01-.938.938h-7.5a.938.938 0 01-.938-.938v-2.813h9.376v2.813zM55.25 39a.938.938 0 01-.938.938H3.688A.938.938 0 012.75 39v-.938h52.5V39zm0-2.813H2.75V27.75a2.821 2.821 0 012.813-2.813h46.874a2.821 2.821 0 012.813 2.813v8.438zm0-14.062a.938.938 0 01-.938.938h-2.109l-1.069-3.75h3.178a.938.938 0 01.938.937v1.875z" fill="#2747F0"/></svg>