<svg width="58" height="58" viewBox="0 0 58 58" fill="none" xmlns="http://www.w3.org/2000/svg">
<path d="M42.0378 45.0618C41.93 45.0617 41.8233 45.0402 41.7239 44.9985C41.6245 44.9567 41.5344 44.8955 41.4589 44.8185C41.0953 44.4486 40.6936 44.1181 40.2606 43.8326C40.0914 43.71 39.9761 43.5269 39.9387 43.3215C39.9012 43.116 39.9445 42.904 40.0595 42.7297C40.1745 42.5553 40.3523 42.4321 40.5559 42.3856C40.7595 42.3391 40.9732 42.373 41.1524 42.4801C41.6796 42.8292 42.1688 43.2324 42.6119 43.6834C42.7237 43.7974 42.7993 43.9419 42.8293 44.0987C42.8592 44.2555 42.8422 44.4177 42.7804 44.5649C42.7186 44.7121 42.6147 44.8378 42.4817 44.9262C42.3487 45.0146 42.1926 45.0617 42.033 45.0618H42.0378Z" fill="#2747F0"/>
<path d="M44.3243 57.3784H13.5784C13.3633 57.3784 13.1571 57.293 13.0051 57.1409C12.853 56.9888 12.7676 56.7826 12.7676 56.5676V49.8784C12.7702 47.5245 13.7064 45.2677 15.3708 43.6033C17.0353 41.9388 19.2921 41.0026 21.646 41H36.2243C36.4394 41 36.6456 41.0854 36.7977 41.2375C36.9497 41.3895 37.0351 41.5958 37.0351 41.8108C37.0351 42.0259 36.9497 42.2321 36.7977 42.3841C36.6456 42.5362 36.4394 42.6216 36.2243 42.6216H21.646C19.722 42.6238 17.8775 43.389 16.517 44.7494C15.1566 46.1099 14.3913 47.9544 14.3892 49.8784V55.7568H43.5135V49.8784C43.5151 49.312 43.4492 48.7475 43.3173 48.1968C43.2892 48.0924 43.2823 47.9836 43.2968 47.8765C43.3114 47.7695 43.3472 47.6665 43.4022 47.5735C43.4571 47.4804 43.5301 47.3994 43.6168 47.335C43.7036 47.2706 43.8023 47.2241 43.9072 47.1984C44.0121 47.1727 44.1211 47.1682 44.2278 47.1852C44.3345 47.2022 44.4367 47.2403 44.5284 47.2974C44.6202 47.3544 44.6996 47.4293 44.762 47.5174C44.8244 47.6056 44.8686 47.7053 44.8919 47.8108C45.0545 48.4869 45.1361 49.1798 45.1352 49.8751V56.5676C45.1352 56.7826 45.0497 56.9888 44.8977 57.1409C44.7456 57.293 44.5394 57.3784 44.3243 57.3784Z" fill="#2747F0"/>
<path d="M28.9497 37.9135C27.2691 37.9135 25.6262 37.4152 24.2288 36.4815C22.8315 35.5478 21.7424 34.2207 21.0992 32.668C20.4561 31.1153 20.2878 29.4068 20.6157 27.7585C20.9435 26.1102 21.7528 24.5961 22.9412 23.4077C24.1296 22.2194 25.6436 21.4101 27.292 21.0822C28.9403 20.7544 30.6488 20.9226 32.2015 21.5658C33.7541 22.2089 35.0812 23.298 36.0149 24.6954C36.9486 26.0928 37.447 27.7356 37.447 29.4162C37.4446 31.6691 36.5486 33.8291 34.9556 35.4221C33.3625 37.0152 31.2026 37.9112 28.9497 37.9135ZM28.9497 22.5406C27.5898 22.5406 26.2605 22.9438 25.1298 23.6993C23.9991 24.4548 23.1178 25.5287 22.5974 26.785C22.077 28.0414 21.9408 29.4239 22.2061 30.7576C22.4714 32.0914 23.1263 33.3165 24.0879 34.2781C25.0494 35.2397 26.2746 35.8945 27.6083 36.1598C28.9421 36.4251 30.3245 36.2889 31.5809 35.7685C32.8373 35.2481 33.9111 34.3669 34.6666 33.2362C35.4221 32.1055 35.8254 30.7761 35.8254 29.4162C35.8234 27.5933 35.0984 25.8456 33.8094 24.5565C32.5204 23.2675 30.7726 22.5425 28.9497 22.5406Z" fill="#2747F0"/>
<path d="M36.8487 57.3786H21.0541C20.8391 57.3786 20.6328 57.2932 20.4808 57.1412C20.3287 56.9891 20.2433 56.7829 20.2433 56.5678V51.9397C20.2433 51.7247 20.3287 51.5184 20.4808 51.3664C20.6328 51.2143 20.8391 51.1289 21.0541 51.1289C21.2691 51.1289 21.4754 51.2143 21.6274 51.3664C21.7795 51.5184 21.8649 51.7247 21.8649 51.9397V55.757H36.0379V51.9397C36.0379 51.7247 36.1233 51.5184 36.2754 51.3664C36.4274 51.2143 36.6337 51.1289 36.8487 51.1289C37.0637 51.1289 37.27 51.2143 37.422 51.3664C37.5741 51.5184 37.6595 51.7247 37.6595 51.9397V56.5678C37.6595 56.7829 37.5741 56.9891 37.422 57.1412C37.27 57.2932 37.0637 57.3786 36.8487 57.3786Z" fill="#2747F0"/>
<path d="M53.7143 23.4054C53.583 23.4054 53.4536 23.3734 53.3373 23.3122L49.1479 21.11L44.9592 23.3122C44.8253 23.3828 44.6743 23.4145 44.5232 23.4038C44.3722 23.393 44.2272 23.3401 44.1047 23.2512C43.9822 23.1622 43.887 23.0408 43.8299 22.9005C43.7729 22.7603 43.7563 22.6068 43.7819 22.4576L44.5822 17.793L41.1938 14.4865C41.0854 14.381 41.0087 14.2472 40.9724 14.1004C40.936 13.9536 40.9415 13.7995 40.9881 13.6556C41.0348 13.5117 41.1207 13.3837 41.2363 13.2861C41.3519 13.1885 41.4925 13.1252 41.6422 13.1033L46.3262 12.4222L48.4206 8.17842C48.4951 8.05182 48.6014 7.94687 48.729 7.87396C48.8566 7.80105 49.0009 7.7627 49.1479 7.7627C49.2948 7.7627 49.4392 7.80105 49.5667 7.87396C49.6943 7.94687 49.8006 8.05182 49.8752 8.17842L51.9695 12.4222L56.6535 13.1033C56.8033 13.125 56.944 13.1883 57.0597 13.2858C57.1754 13.3833 57.2614 13.5113 57.3082 13.6553C57.3549 13.7992 57.3604 13.9533 57.3241 14.1002C57.2878 14.2471 57.2111 14.3809 57.1027 14.4865L53.7135 17.7898L54.5138 22.4544C54.5338 22.5708 54.5281 22.6901 54.4971 22.8041C54.4661 22.9181 54.4106 23.0239 54.3344 23.1142C54.2583 23.2044 54.1633 23.277 54.0562 23.3267C53.9491 23.3765 53.8324 23.4022 53.7143 23.4022V23.4054ZM49.1479 19.383C49.2793 19.3828 49.4087 19.4148 49.5249 19.4763L52.6376 21.1125L52.0425 17.6487C52.0203 17.5189 52.03 17.3857 52.0708 17.2605C52.1116 17.1354 52.1823 17.022 52.2768 16.9303L54.7943 14.476L51.3143 13.9709C51.1842 13.952 51.0607 13.9017 50.9543 13.8245C50.848 13.7472 50.762 13.6452 50.7038 13.5273L49.1479 10.3741L47.5919 13.5241C47.5337 13.642 47.4477 13.7439 47.3414 13.8212C47.235 13.8985 47.1115 13.9487 46.9814 13.9676L43.5014 14.4727L46.0198 16.9271C46.1141 17.0189 46.1846 17.1322 46.2253 17.2574C46.266 17.3826 46.2756 17.5157 46.2533 17.6454L45.6581 21.1109L48.7708 19.4746C48.887 19.4132 49.0164 19.3812 49.1479 19.3814V19.383Z" fill="#2747F0"/>
<path d="M33.5665 16.2969C33.4352 16.2968 33.3059 16.2651 33.1895 16.2045L29 13.9999L24.8106 16.2028C24.6766 16.2732 24.5257 16.3048 24.3748 16.2939C24.2239 16.283 24.0791 16.2301 23.9567 16.1412C23.8343 16.0523 23.7392 15.9309 23.6822 15.7908C23.6252 15.6506 23.6085 15.4974 23.6341 15.3483L24.4343 10.6828L21.0451 7.3796C20.9367 7.27402 20.86 7.14021 20.8237 6.9933C20.7874 6.84639 20.793 6.69226 20.8397 6.54833C20.8864 6.4044 20.9725 6.27642 21.0882 6.17888C21.2039 6.08133 21.3446 6.01811 21.4943 5.99636L26.1784 5.31609L28.2703 1.07393C28.3448 0.947327 28.4512 0.84238 28.5787 0.769468C28.7063 0.696556 28.8506 0.658203 28.9976 0.658203C29.1445 0.658203 29.2889 0.696556 29.4164 0.769468C29.544 0.84238 29.6503 0.947327 29.7249 1.07393L31.8216 5.31771L36.5057 5.99798C36.6554 6.01973 36.7961 6.08295 36.9118 6.1805C37.0275 6.27805 37.1136 6.40602 37.1603 6.54995C37.2071 6.69388 37.2126 6.84802 37.1763 6.99492C37.14 7.14183 37.0633 7.27564 36.9549 7.38123L33.5657 10.6845L34.3659 15.3499C34.3858 15.4662 34.38 15.5855 34.3489 15.6994C34.3179 15.8132 34.2624 15.9189 34.1862 16.0091C34.1101 16.0993 34.0152 16.1718 33.9082 16.2215C33.8011 16.2712 33.6845 16.2969 33.5665 16.2969ZM29 12.2753C29.1313 12.2751 29.2607 12.3068 29.377 12.3677L32.4865 14.0039L31.8914 10.5385C31.8692 10.4089 31.8789 10.2759 31.9195 10.1509C31.9602 10.0259 32.0307 9.91267 32.1249 9.82096L34.6432 7.36663L31.1665 6.86474C31.0363 6.84576 30.9127 6.7954 30.8063 6.71799C30.7 6.64058 30.614 6.53845 30.556 6.42041L29 3.26474L27.4441 6.41717C27.386 6.53521 27.3 6.63734 27.1937 6.71475C27.0873 6.79216 26.9637 6.84252 26.8335 6.8615L23.3535 7.36663L25.8719 9.82096C25.9661 9.91267 26.0365 10.0259 26.0772 10.1509C26.1179 10.2759 26.1276 10.4089 26.1054 10.5385L25.5135 14.0039L28.6262 12.3677C28.7416 12.3073 28.8698 12.2756 29 12.2753Z" fill="#2747F0"/>
<path d="M13.4186 23.4055C13.287 23.4055 13.1573 23.3735 13.0408 23.3122L8.85215 21.1101L4.66269 23.3106C4.52879 23.381 4.37786 23.4125 4.22697 23.4016C4.07608 23.3907 3.93125 23.3379 3.80885 23.2489C3.68645 23.16 3.59137 23.0387 3.53435 22.8985C3.47733 22.7584 3.46066 22.6051 3.4862 22.456L4.28648 17.7914L0.897286 14.4865C0.790295 14.3808 0.71484 14.2473 0.679362 14.1011C0.643884 13.9549 0.649782 13.8017 0.696397 13.6587C0.743011 13.5157 0.828503 13.3884 0.94331 13.2912C1.05812 13.194 1.19771 13.1306 1.34648 13.1082L6.03053 12.4271L8.12485 8.1833C8.19941 8.0567 8.30573 7.95176 8.43329 7.87884C8.56084 7.80593 8.70522 7.76758 8.85215 7.76758C8.99908 7.76758 9.14346 7.80593 9.27102 7.87884C9.39857 7.95176 9.50489 8.0567 9.57945 8.1833L11.6738 12.4271L16.3578 13.1082C16.5075 13.13 16.6481 13.1934 16.7637 13.291C16.8793 13.3885 16.9653 13.5165 17.0119 13.6604C17.0585 13.8044 17.064 13.9584 17.0277 14.1053C16.9913 14.2521 16.9146 14.3859 16.8062 14.4914L13.4178 17.7947L14.2181 22.4593C14.2381 22.5757 14.2323 22.695 14.2014 22.809C14.1704 22.9229 14.1149 23.0288 14.0387 23.119C13.9626 23.2093 13.8676 23.2819 13.7605 23.3316C13.6534 23.3814 13.5367 23.4071 13.4186 23.4071V23.4055ZM8.85215 19.383C8.98356 19.3828 9.11302 19.4148 9.22918 19.4763L12.3419 21.1125L11.7467 17.6487C11.7244 17.519 11.7341 17.3858 11.7747 17.2607C11.8154 17.1355 11.886 17.0221 11.9803 16.9303L14.4986 14.476L11.0186 13.9709C10.8885 13.952 10.765 13.9017 10.6586 13.8245C10.5523 13.7472 10.4663 13.6452 10.4081 13.5274L8.85215 10.3741L7.29621 13.5274C7.23802 13.6452 7.15204 13.7472 7.04568 13.8245C6.93932 13.9017 6.81576 13.952 6.68566 13.9709L3.20566 14.476L5.71918 16.9303C5.81434 17.0217 5.8858 17.1348 5.92734 17.26C5.96888 17.3852 5.97925 17.5186 5.95756 17.6487L5.36242 21.1109L8.47512 19.4747C8.59128 19.4132 8.72074 19.3812 8.85215 19.3814V19.383Z" fill="#2747F0"/>
</svg>
