<svg width="59" height="58" viewBox="0 0 59 58" fill="none" xmlns="http://www.w3.org/2000/svg">
<path d="M34.625 47.75H44V49.625H34.625V47.75Z" fill="#2747F0"/>
<path d="M34.625 44H44V45.875H34.625V44Z" fill="#2747F0"/>
<path d="M50.5625 44C50.0062 44 49.4625 44.165 49 44.474C48.5374 44.783 48.177 45.2223 47.9641 45.7362C47.7512 46.2501 47.6955 46.8156 47.804 47.3612C47.9126 47.9068 48.1804 48.4079 48.5738 48.8012C48.9671 49.1946 49.4682 49.4624 50.0138 49.571C50.5594 49.6795 51.1249 49.6238 51.6388 49.4109C52.1527 49.198 52.592 48.8376 52.901 48.375C53.2101 47.9125 53.375 47.3688 53.375 46.8125C53.375 46.0666 53.0787 45.3512 52.5512 44.8238C52.0238 44.2963 51.3084 44 50.5625 44ZM50.5625 47.75C50.3771 47.75 50.1958 47.695 50.0417 47.592C49.8875 47.489 49.7673 47.3426 49.6964 47.1713C49.6254 47 49.6068 46.8115 49.643 46.6296C49.6792 46.4477 49.7685 46.2807 49.8996 46.1496C50.0307 46.0185 50.1977 45.9292 50.3796 45.893C50.5615 45.8568 50.75 45.8754 50.9213 45.9464C51.0926 46.0173 51.239 46.1375 51.342 46.2917C51.445 46.4458 51.5 46.6271 51.5 46.8125C51.5 47.0611 51.4012 47.2996 51.2254 47.4754C51.0496 47.6512 50.8111 47.75 50.5625 47.75Z" fill="#2747F0"/>
<path d="M28.0625 44C27.5062 44 26.9625 44.165 26.5 44.474C26.0374 44.783 25.677 45.2223 25.4641 45.7362C25.2512 46.2501 25.1955 46.8156 25.304 47.3612C25.4126 47.9068 25.6804 48.4079 26.0738 48.8012C26.4671 49.1946 26.9682 49.4624 27.5138 49.571C28.0594 49.6795 28.6249 49.6238 29.1388 49.4109C29.6527 49.198 30.092 48.8376 30.401 48.375C30.7101 47.9125 30.875 47.3688 30.875 46.8125C30.875 46.0666 30.5787 45.3512 30.0512 44.8238C29.5238 44.2963 28.8084 44 28.0625 44ZM28.0625 47.75C27.8771 47.75 27.6958 47.695 27.5417 47.592C27.3875 47.489 27.2673 47.3426 27.1964 47.1713C27.1254 47 27.1068 46.8115 27.143 46.6296C27.1792 46.4477 27.2685 46.2807 27.3996 46.1496C27.5307 46.0185 27.6978 45.9292 27.8796 45.893C28.0615 45.8568 28.25 45.8754 28.4213 45.9464C28.5926 46.0173 28.739 46.1375 28.842 46.2917C28.945 46.4458 29 46.6271 29 46.8125C29 47.0611 28.9012 47.2996 28.7254 47.4754C28.5496 47.6512 28.3111 47.75 28.0625 47.75Z" fill="#2747F0"/>
<path d="M58.0625 39.3125C58.0602 38.5673 57.7632 37.8532 57.2363 37.3262C56.7093 36.7993 55.9952 36.5022 55.25 36.5C54.7097 36.5011 54.1816 36.6608 53.7312 36.9594L52.4 33.4063L51.65 30.4156C51.5489 30.0102 51.3147 29.6504 50.985 29.3938C50.6553 29.1371 50.2491 28.9985 49.8312 29H44.9375V26.1875C44.9375 25.9389 44.8387 25.7004 44.6629 25.5246C44.4871 25.3488 44.2486 25.25 44 25.25H34.625C34.3763 25.25 34.1379 25.3488 33.9621 25.5246C33.7862 25.7004 33.6875 25.9389 33.6875 26.1875V29H28.7937C28.3759 28.9985 27.9696 29.1371 27.6399 29.3938C27.3102 29.6504 27.0761 30.0102 26.975 30.4156L26.225 33.4063L24.8937 36.9594C24.4434 36.6608 23.9153 36.5011 23.375 36.5C22.7674 36.5025 22.1769 36.7016 21.6919 37.0677C21.2069 37.4338 20.8535 37.9471 20.6847 38.5308C20.5158 39.1145 20.5405 39.7372 20.7551 40.3057C20.9696 40.8741 21.3625 41.3578 21.875 41.6844C21.6311 42.1029 21.5018 42.5782 21.5 43.0625V55.25C21.5015 55.7468 21.6995 56.2229 22.0508 56.5742C22.4021 56.9255 22.8782 57.1235 23.375 57.125H27.125C27.6218 57.1235 28.0979 56.9255 28.4492 56.5742C28.8005 56.2229 28.9985 55.7468 29 55.25V53.375H49.625V55.25C49.6265 55.7468 49.8245 56.2229 50.1758 56.5742C50.5271 56.9255 51.0032 57.1235 51.5 57.125H55.25C55.7468 57.1235 56.2229 56.9255 56.5742 56.5742C56.9255 56.2229 57.1235 55.7468 57.125 55.25V43.0625C57.1231 42.5782 56.9938 42.1029 56.75 41.6844C57.1519 41.4327 57.4832 41.083 57.7128 40.6681C57.9424 40.2532 58.0627 39.7867 58.0625 39.3125ZM35.5625 27.125H43.0625V29H35.5625V27.125ZM28.7937 30.875H49.8312L50.3 32.75H28.325L28.7937 30.875ZM27.7719 34.625H50.8531L52.9625 40.25H36.3687C36.164 39.4456 35.6971 38.7323 35.0418 38.2228C34.3865 37.7133 33.5801 37.4367 32.75 37.4367C31.9199 37.4367 31.1135 37.7133 30.4582 38.2228C29.8028 38.7323 29.3359 39.4456 29.1312 40.25H25.6625L27.7719 34.625ZM34.3625 40.25H31.1375C31.2995 39.9652 31.5341 39.7285 31.8173 39.5638C32.1005 39.3991 32.4223 39.3123 32.75 39.3123C33.0776 39.3123 33.3994 39.3991 33.6826 39.5638C33.9659 39.7285 34.2004 39.9652 34.3625 40.25ZM22.4375 39.3125C22.4375 39.0639 22.5362 38.8254 22.7121 38.6496C22.8879 38.4738 23.1263 38.375 23.375 38.375C23.5396 38.3763 23.701 38.4212 23.8427 38.5052C23.9843 38.5892 24.1011 38.7092 24.1812 38.8531L23.6844 40.1937C23.5853 40.2305 23.4806 40.2495 23.375 40.25C23.1263 40.25 22.8879 40.1512 22.7121 39.9754C22.5362 39.7996 22.4375 39.5611 22.4375 39.3125ZM27.125 55.25H23.375V53.2062C23.6756 53.3154 23.9927 53.3725 24.3125 53.375H27.125V55.25ZM55.25 55.25H51.5V53.375H54.3125C54.6323 53.3725 54.9493 53.3154 55.25 53.2062V55.25ZM55.25 50.5625C55.25 50.8111 55.1512 51.0496 54.9754 51.2254C54.7996 51.4012 54.5611 51.5 54.3125 51.5H24.3125C24.0638 51.5 23.8254 51.4012 23.6496 51.2254C23.4737 51.0496 23.375 50.8111 23.375 50.5625V43.0625C23.375 42.8139 23.4737 42.5754 23.6496 42.3996C23.8254 42.2238 24.0638 42.125 24.3125 42.125H54.3125C54.5611 42.125 54.7996 42.2238 54.9754 42.3996C55.1512 42.5754 55.25 42.8139 55.25 43.0625V50.5625ZM55.25 40.25C55.1443 40.2495 55.0396 40.2305 54.9406 40.1937L54.4437 38.8531C54.5223 38.7079 54.6388 38.5868 54.7807 38.5026C54.9227 38.4184 55.0849 38.3743 55.25 38.375C55.4986 38.375 55.7371 38.4738 55.9129 38.6496C56.0887 38.8254 56.1875 39.0639 56.1875 39.3125C56.1875 39.5611 56.0887 39.7996 55.9129 39.9754C55.7371 40.1512 55.4986 40.25 55.25 40.25Z" fill="#2747F0"/>
<path d="M2.75 51.5V6.5C2.75 5.50544 3.14509 4.55161 3.84835 3.84835C4.55161 3.14509 5.50544 2.75 6.5 2.75H32.75C33.7446 2.75 34.6984 3.14509 35.4016 3.84835C36.1049 4.55161 36.5 5.50544 36.5 6.5V23.375H38.375V6.5C38.3735 5.00861 37.7804 3.57874 36.7258 2.52417C35.6713 1.4696 34.2414 0.876489 32.75 0.875H6.5C5.00861 0.876489 3.57874 1.4696 2.52417 2.52417C1.4696 3.57874 0.876489 5.00861 0.875 6.5V51.5C0.876489 52.9914 1.4696 54.4213 2.52417 55.4758C3.57874 56.5304 5.00861 57.1235 6.5 57.125H19.625V55.25H6.5C5.50544 55.25 4.55161 54.8549 3.84835 54.1516C3.14509 53.4484 2.75 52.4946 2.75 51.5Z" fill="#2747F0"/>
<path d="M32.75 55.25H30.875V57.125H32.75C33.9676 57.1281 35.1528 56.7331 36.125 56L35 54.5C34.3521 54.9891 33.5618 55.2525 32.75 55.25Z" fill="#2747F0"/>
<path d="M14.9375 50.5625C14.9375 51.3084 15.2338 52.0238 15.7613 52.5512C16.2887 53.0787 17.0041 53.375 17.75 53.375H19.625V51.5H17.75C17.5014 51.5 17.2629 51.4012 17.0871 51.2254C16.9113 51.0496 16.8125 50.8111 16.8125 50.5625C16.8125 50.3139 16.9113 50.0754 17.0871 49.8996C17.2629 49.7238 17.5014 49.625 17.75 49.625H19.625V47.75H17.75C17.0041 47.75 16.2887 48.0463 15.7613 48.5738C15.2338 49.1012 14.9375 49.8166 14.9375 50.5625Z" fill="#2747F0"/>
<path d="M13.0625 4.625H14.9375V6.5H13.0625V4.625Z" fill="#2747F0"/>
<path d="M16.8125 4.625H22.4375V6.5H16.8125V4.625Z" fill="#2747F0"/>
<path d="M6.5 21.5C6.5 26.4866 13.9213 34.8922 14.2363 35.2484C14.3242 35.3482 14.4324 35.4281 14.5537 35.4828C14.6749 35.5375 14.8064 35.5658 14.9394 35.5658C15.0724 35.5658 15.2039 35.5375 15.3251 35.4828C15.4463 35.4281 15.5545 35.3482 15.6425 35.2484C15.9538 34.8922 23.375 26.4866 23.375 21.5C23.375 19.2622 22.4861 17.1161 20.9037 15.5338C19.3214 13.9514 17.1753 13.0625 14.9375 13.0625C12.6997 13.0625 10.5536 13.9514 8.97129 15.5338C7.38895 17.1161 6.5 19.2622 6.5 21.5ZM14.9375 14.9375C16.6774 14.9395 18.3454 15.6315 19.5757 16.8618C20.806 18.0921 21.498 19.7601 21.5 21.5C21.5 24.6875 17.2616 30.4128 14.9375 33.1878C12.6134 30.4128 8.375 24.6875 8.375 21.5C8.37699 19.7601 9.06903 18.0921 10.2993 16.8618C11.5296 15.6315 13.1976 14.9395 14.9375 14.9375Z" fill="#2747F0"/>
<path d="M14.9375 23.375C15.4938 23.375 16.0375 23.21 16.5 22.901C16.9626 22.592 17.323 22.1527 17.5359 21.6388C17.7488 21.1249 17.8045 20.5594 17.696 20.0138C17.5874 19.4682 17.3196 18.9671 16.9262 18.5738C16.5329 18.1804 16.0318 17.9126 15.4862 17.804C14.9406 17.6955 14.3751 17.7512 13.8612 17.9641C13.3473 18.177 12.908 18.5374 12.599 19C12.29 19.4625 12.125 20.0062 12.125 20.5625C12.125 21.3084 12.4213 22.0238 12.9488 22.5512C13.4762 23.0787 14.1916 23.375 14.9375 23.375ZM14.9375 19.625C15.1229 19.625 15.3042 19.68 15.4583 19.783C15.6125 19.886 15.7327 20.0324 15.8036 20.2037C15.8746 20.375 15.8932 20.5635 15.857 20.7454C15.8208 20.9273 15.7315 21.0943 15.6004 21.2254C15.4693 21.3565 15.3023 21.4458 15.1204 21.482C14.9385 21.5182 14.75 21.4996 14.5787 21.4286C14.4074 21.3577 14.261 21.2375 14.158 21.0833C14.055 20.9292 14 20.7479 14 20.5625C14 20.3139 14.0988 20.0754 14.2746 19.8996C14.4504 19.7238 14.6889 19.625 14.9375 19.625Z" fill="#2747F0"/>
</svg>
