<svg width="58" height="48" viewBox="0 0 58 48" fill="none" xmlns="http://www.w3.org/2000/svg">
<path d="M10.25 26.8125C9.50832 26.8125 8.7833 27.0324 8.16661 27.4445C7.54993 27.8565 7.06928 28.4422 6.78545 29.1274C6.50162 29.8127 6.42736 30.5667 6.57206 31.2941C6.71675 32.0215 7.0739 32.6897 7.59835 33.2142C8.1228 33.7386 8.79098 34.0958 9.51841 34.2405C10.2458 34.3852 10.9998 34.3109 11.6851 34.0271C12.3703 33.7432 12.956 33.2626 13.368 32.6459C13.7801 32.0292 14 31.3042 14 30.5625C14 29.5679 13.6049 28.6141 12.9016 27.9109C12.1984 27.2076 11.2446 26.8125 10.25 26.8125ZM10.25 32.4375C9.87916 32.4375 9.51665 32.3275 9.20831 32.1215C8.89996 31.9155 8.65964 31.6227 8.51773 31.28C8.37581 30.9374 8.33868 30.5604 8.41103 30.1967C8.48338 29.833 8.66195 29.4989 8.92418 29.2367C9.1864 28.9745 9.52049 28.7959 9.88421 28.7235C10.2479 28.6512 10.6249 28.6883 10.9675 28.8302C11.3101 28.9721 11.603 29.2125 11.809 29.5208C12.015 29.8292 12.125 30.1917 12.125 30.5625C12.125 31.0598 11.9275 31.5367 11.5758 31.8883C11.2242 32.24 10.7473 32.4375 10.25 32.4375Z" fill="#2747F0"/>
<path d="M47.75 26.8125C47.0083 26.8125 46.2833 27.0324 45.6666 27.4445C45.0499 27.8565 44.5693 28.4422 44.2855 29.1274C44.0016 29.8127 43.9274 30.5667 44.0721 31.2941C44.2168 32.0215 44.5739 32.6897 45.0984 33.2142C45.6228 33.7386 46.291 34.0958 47.0184 34.2405C47.7458 34.3852 48.4998 34.3109 49.1851 34.0271C49.8703 33.7432 50.4559 33.2626 50.868 32.6459C51.2801 32.0292 51.5 31.3042 51.5 30.5625C51.5 29.5679 51.1049 28.6141 50.4016 27.9109C49.6984 27.2076 48.7446 26.8125 47.75 26.8125ZM47.75 32.4375C47.3792 32.4375 47.0166 32.3275 46.7083 32.1215C46.4 31.9155 46.1596 31.6227 46.0177 31.28C45.8758 30.9374 45.8387 30.5604 45.911 30.1967C45.9834 29.833 46.1619 29.4989 46.4242 29.2367C46.6864 28.9745 47.0205 28.7959 47.3842 28.7235C47.7479 28.6512 48.1249 28.6883 48.4675 28.8302C48.8101 28.9721 49.103 29.2125 49.309 29.5208C49.515 29.8292 49.625 30.1917 49.625 30.5625C49.625 31.0598 49.4274 31.5367 49.0758 31.8883C48.7242 32.24 48.2473 32.4375 47.75 32.4375Z" fill="#2747F0"/>
<path d="M20.5625 31.5H37.4375V33.375H20.5625V31.5Z" fill="#2747F0"/>
<path d="M20.5625 27.75H37.4375V29.625H20.5625V27.75Z" fill="#2747F0"/>
<path d="M26.1875 13.6875H31.8125V15.5625H26.1875V13.6875Z" fill="#2747F0"/>
<path d="M57.125 22.125V20.25C57.1228 19.5048 56.8257 18.7907 56.2988 18.2637C55.7718 17.7368 55.0577 17.4397 54.3125 17.4375H50.6L48.6594 10.6312L48.0781 8.31563C47.9256 7.70761 47.5743 7.16797 47.08 6.78241C46.5858 6.39685 45.9769 6.18746 45.35 6.1875H37.4375V2.4375C37.436 1.94068 37.238 1.46462 36.8867 1.11331C36.5354 0.762004 36.0593 0.563984 35.5625 0.5625H22.4375C21.9407 0.563984 21.4646 0.762004 21.1133 1.11331C20.762 1.46462 20.564 1.94068 20.5625 2.4375V6.1875H12.65C12.0231 6.18746 11.4142 6.39685 10.92 6.78241C10.4257 7.16797 10.0744 7.70761 9.92188 8.31563L9.35 10.6219L7.4 17.4375H3.6875C2.94226 17.4397 2.22819 17.7368 1.70122 18.2637C1.17426 18.7907 0.877226 19.5048 0.875 20.25V22.125C0.876518 22.5999 0.9986 23.0667 1.2298 23.4815C1.46101 23.8964 1.79376 24.2458 2.19688 24.4969C1.34938 25.3677 0.875117 26.5348 0.875 27.75V39C0.876292 39.3933 0.960447 39.7819 1.12198 40.1405C1.28351 40.4991 1.5188 40.8197 1.8125 41.0813V44.625C1.81473 45.3702 2.11176 46.0843 2.63872 46.6113C3.16569 47.1382 3.87976 47.4353 4.625 47.4375H12.125C12.8702 47.4353 13.5843 47.1382 14.1113 46.6113C14.6382 46.0843 14.9353 45.3702 14.9375 44.625V41.8125H43.0625V44.625C43.0647 45.3702 43.3618 46.0843 43.8887 46.6113C44.4157 47.1382 45.1298 47.4353 45.875 47.4375H53.375C54.1202 47.4353 54.8343 47.1382 55.3613 46.6113C55.8882 46.0843 56.1853 45.3702 56.1875 44.625V41.0813C56.4812 40.8197 56.7165 40.4991 56.878 40.1405C57.0396 39.7819 57.1237 39.3933 57.125 39V27.75C57.1249 26.5348 56.6506 25.3677 55.8031 24.4969C56.2062 24.2458 56.539 23.8964 56.7702 23.4815C57.0014 23.0667 57.1235 22.5999 57.125 22.125ZM22.4375 2.4375H35.5625V6.1875H22.4375V2.4375ZM11.7406 8.775C11.7909 8.57175 11.9077 8.39116 12.0725 8.26203C12.2373 8.13291 12.4406 8.06266 12.65 8.0625H45.35C45.5594 8.06266 45.7627 8.13291 45.9275 8.26203C46.0923 8.39116 46.2091 8.57175 46.2594 8.775L46.55 9.9375H11.45L11.7406 8.775ZM10.9531 11.8125H47.0469L50.2531 23.0625H23.2906C23.0703 21.7524 22.3928 20.5627 21.3785 19.7047C20.3641 18.8467 19.0785 18.3759 17.75 18.3759C16.4215 18.3759 15.1359 18.8467 14.1215 19.7047C13.1072 20.5627 12.4297 21.7524 12.2094 23.0625H7.74687L10.9531 11.8125ZM21.3688 23.0625H14.1312C14.3359 22.2581 14.8028 21.5448 15.4582 21.0353C16.1135 20.5258 16.9199 20.2492 17.75 20.2492C18.5801 20.2492 19.3865 20.5258 20.0418 21.0353C20.6972 21.5448 21.1641 22.2581 21.3688 23.0625ZM2.75 20.25C2.75 20.0014 2.84877 19.7629 3.02459 19.5871C3.2004 19.4113 3.43886 19.3125 3.6875 19.3125H6.86563L5.79688 23.0625H3.6875C3.43886 23.0625 3.2004 22.9637 3.02459 22.7879C2.84877 22.6121 2.75 22.3736 2.75 22.125V20.25ZM13.0625 44.625C13.0625 44.8736 12.9637 45.1121 12.7879 45.2879C12.6121 45.4637 12.3736 45.5625 12.125 45.5625H4.625C4.37636 45.5625 4.1379 45.4637 3.96209 45.2879C3.78627 45.1121 3.6875 44.8736 3.6875 44.625V41.8125H13.0625V44.625ZM54.3125 44.625C54.3125 44.8736 54.2137 45.1121 54.0379 45.2879C53.8621 45.4637 53.6236 45.5625 53.375 45.5625H45.875C45.6264 45.5625 45.3879 45.4637 45.2121 45.2879C45.0363 45.1121 44.9375 44.8736 44.9375 44.625V41.8125H54.3125V44.625ZM55.25 39C55.25 39.2486 55.1512 39.4871 54.9754 39.6629C54.7996 39.8387 54.5611 39.9375 54.3125 39.9375H3.6875C3.43886 39.9375 3.2004 39.8387 3.02459 39.6629C2.84877 39.4871 2.75 39.2486 2.75 39V38.0625H55.25V39ZM55.25 36.1875H2.75V27.75C2.75223 27.0048 3.04926 26.2907 3.57622 25.7637C4.10319 25.2368 4.81726 24.9397 5.5625 24.9375H52.4375C53.1827 24.9397 53.8968 25.2368 54.4238 25.7637C54.9507 26.2907 55.2478 27.0048 55.25 27.75V36.1875ZM55.25 22.125C55.25 22.3736 55.1512 22.6121 54.9754 22.7879C54.7996 22.9637 54.5611 23.0625 54.3125 23.0625H52.2031L51.1344 19.3125H54.3125C54.5611 19.3125 54.7996 19.4113 54.9754 19.5871C55.1512 19.7629 55.25 20.0014 55.25 20.25V22.125Z" fill="#2747F0"/>
</svg>
