<svg width="40" height="40" viewBox="0 0 40 40" fill="none" xmlns="http://www.w3.org/2000/svg">
<path d="M23.2893 37.443C22.889 37.2825 22.434 37.477 22.2734 37.8775C22.1393 38.2122 21.7991 38.437 21.4271 38.437H18.573C18.201 38.437 17.8608 38.2122 17.7267 37.8775C17.5662 37.477 17.1114 37.2829 16.7108 37.443C16.3104 37.6036 16.1158 38.0584 16.2764 38.4589C16.6516 39.3948 17.553 39.9995 18.573 39.9995H21.4271C22.4471 39.9995 23.3485 39.3948 23.7237 38.4589C23.8843 38.0584 23.6897 37.6036 23.2893 37.443Z" fill="white"/>
<path d="M32.4643 33.4189C32.2521 32.3248 31.578 31.3777 30.6145 30.8183C30.7897 30.6752 30.9541 30.5169 31.1041 30.3426C31.844 29.483 32.1717 28.3466 32.0028 27.2252C31.7287 25.403 30.9532 23.7004 29.7601 22.3014C28.8668 21.254 27.7689 20.4099 26.54 19.8168C28.0439 18.2126 28.9664 16.0571 28.9664 13.69C28.9663 9.59359 26.2048 6.12992 22.4457 5.06281C22.9577 4.45148 23.2371 3.68773 23.2371 2.8807C23.2371 1.29227 21.9448 0 20.3564 0C20.3564 0 20.3563 0 20.3562 0C19.715 0 19.1145 0.208516 18.6653 0.587031C18.1689 1.00531 17.8956 1.5932 17.8955 2.24234C17.8955 2.67375 18.2453 3.02359 18.6768 3.02359C19.1082 3.02359 19.458 2.67383 19.458 2.24234C19.458 2.05648 19.53 1.90156 19.6722 1.78172C19.84 1.64031 20.0829 1.56242 20.3563 1.56242H20.3564C21.0832 1.56242 21.6746 2.15367 21.6746 2.88055C21.6746 3.37289 21.4829 3.8357 21.1348 4.18383C20.7867 4.53187 20.3239 4.72359 19.8318 4.72359C19.8317 4.72359 19.8317 4.72359 19.8316 4.72359C19.8125 4.72359 19.7937 4.72508 19.775 4.72648C14.9346 4.84648 11.0339 8.82125 11.0339 13.6899C11.0339 16.057 11.9564 18.2125 13.4602 19.8167C12.2314 20.4098 11.1335 21.2538 10.2402 22.3013C9.04714 23.7003 8.27159 25.4029 7.99738 27.225C7.82863 28.3466 8.1562 29.4829 8.89613 30.3425C9.04613 30.5168 9.2105 30.6752 9.38574 30.8182C8.42222 31.3776 7.74808 32.3248 7.53597 33.4188C7.32323 34.5157 7.5962 35.6495 8.28472 36.5294L9.95777 38.6673C10.6337 39.5311 11.6605 39.9955 12.702 39.9955C13.2932 39.9955 13.8893 39.8459 14.4285 39.5345C15.9177 38.6748 16.5558 36.8238 15.9129 35.2291L14.898 32.7113C14.8302 32.5431 14.75 32.3818 14.6606 32.2268H20.3907C20.8222 32.2268 21.172 31.8769 21.172 31.4455C21.172 31.0141 20.8222 30.6643 20.3907 30.6643H13.1754V29.0173C13.1754 28.8052 13.3479 28.6327 13.56 28.6327H26.4403C26.6523 28.6327 26.8249 28.8052 26.8249 29.0173V30.7723C26.0497 31.1973 25.4378 31.8788 25.1021 32.7113L24.0872 35.2291C23.4443 36.8238 24.0825 38.6748 25.5716 39.5345C26.1109 39.8459 26.7068 39.9955 27.2982 39.9955C28.3396 39.9955 29.3665 39.531 30.0425 38.6673L31.7154 36.5294C32.4041 35.6495 32.677 34.5158 32.4643 33.4189ZM12.5963 13.69C12.5964 9.60758 15.9178 6.28625 20.0001 6.28617C24.0825 6.28625 27.4039 9.60758 27.4039 13.69C27.4039 17.7724 24.0826 21.0937 20.0001 21.0938C15.9177 21.0937 12.5963 17.7724 12.5963 13.69ZM13.449 33.2955L14.4639 35.8134C14.8175 36.6905 14.4664 37.7086 13.6474 38.1815C12.8285 38.6544 11.7712 38.4495 11.1883 37.7045L9.51527 35.5666C9.10566 35.0433 8.94331 34.3689 9.06988 33.7164C9.19644 33.0639 9.59917 32.4991 10.1748 32.1667C10.7503 31.8344 11.4409 31.7682 12.0693 31.9847C12.6976 32.2013 13.2005 32.6792 13.449 33.2955ZM26.4454 25.5078C26.0139 25.5078 25.6642 25.8577 25.6642 26.2891V27.0703H14.3412V26.2891C14.3412 25.8577 13.9914 25.5078 13.56 25.5078C13.1285 25.5078 12.7787 25.8577 12.7787 26.2891V27.2345C12.093 27.5361 11.6128 28.2216 11.6128 29.0174V30.1206C11.0212 30.0615 10.4722 29.7785 10.0803 29.3232C9.63753 28.8087 9.44152 28.1287 9.54245 27.4576C9.98972 24.4847 11.9719 22.0284 14.7546 20.9571C16.2306 22.0254 18.0429 22.6562 20.0001 22.6562C21.9573 22.6562 23.7696 22.0254 25.2456 20.9571C28.0283 22.0284 30.0105 24.4847 30.4578 27.4576C30.5587 28.1287 30.3627 28.8087 29.9199 29.3232C29.528 29.7785 28.9789 30.0615 28.3873 30.1206V29.0174C28.3873 28.2236 27.9096 27.5396 27.2267 27.2368V26.2891C27.2267 25.8577 26.8769 25.5078 26.4454 25.5078ZM30.485 35.5666L28.812 37.7044C28.2291 38.4492 27.172 38.6542 26.3529 38.1814C25.5339 37.7085 25.1828 36.6905 25.5364 35.8132L26.5514 33.2954C26.7999 32.679 27.3028 32.2012 27.9311 31.9845C28.1745 31.9007 28.4271 31.8592 28.6789 31.8592C29.0771 31.8592 29.4729 31.963 29.8256 32.1666C30.4012 32.499 30.8039 33.0638 30.9305 33.7163C31.0569 34.3688 30.8946 35.0432 30.485 35.5666Z" fill="white"/>
<path d="M24.0464 30.893C23.9011 30.7477 23.6995 30.6641 23.494 30.6641C23.2885 30.6641 23.087 30.7476 22.9417 30.893C22.7964 31.0384 22.7128 31.2398 22.7128 31.4453C22.7128 31.6516 22.7964 31.8523 22.9417 31.9976C23.087 32.1437 23.2885 32.2266 23.494 32.2266C23.6995 32.2266 23.9011 32.1437 24.0464 31.9976C24.1917 31.8523 24.2753 31.6508 24.2753 31.4453C24.2753 31.2398 24.1917 31.0383 24.0464 30.893Z" fill="white"/>
<path d="M22.1542 16.3579C21.819 16.0862 21.3271 16.1378 21.0554 16.4729C20.7958 16.7932 20.4111 16.9769 20.0003 16.9769C19.5894 16.9769 19.2047 16.7932 18.9452 16.4729C18.6736 16.1377 18.1816 16.0864 17.8464 16.3579C17.5111 16.6296 17.4597 17.1215 17.7314 17.4567C18.289 18.1448 19.1161 18.5393 20.0003 18.5393C20.8845 18.5393 21.7116 18.1447 22.2692 17.4567C22.5409 17.1215 22.4894 16.6296 22.1542 16.3579Z" fill="white"/>
<path d="M18.0258 13.1379C17.3171 12.4293 16.164 12.4293 15.4552 13.1379C15.1501 13.443 15.15 13.9376 15.4552 14.2428C15.7602 14.5479 16.2549 14.5479 16.56 14.2429C16.6595 14.1434 16.8214 14.1434 16.9209 14.2429C17.0735 14.3954 17.2734 14.4717 17.4734 14.4717C17.6733 14.4717 17.8733 14.3954 18.0258 14.2429C18.3309 13.9378 18.3309 13.4431 18.0258 13.1379Z" fill="white"/>
<path d="M24.5447 13.1379C23.8359 12.4293 22.6827 12.4293 21.974 13.1379C21.669 13.443 21.669 13.9377 21.974 14.2428C22.1265 14.3954 22.3265 14.4716 22.5265 14.4716C22.7264 14.4716 22.9264 14.3953 23.0789 14.2428C23.1784 14.1434 23.3403 14.1433 23.4398 14.2428C23.7449 14.548 24.2396 14.5479 24.5447 14.2427C24.8498 13.9377 24.8498 13.443 24.5447 13.1379Z" fill="white"/>
</svg>
