<svg width="40" height="40" viewBox="0 0 40 40" fill="none" xmlns="http://www.w3.org/2000/svg">
<path d="M35.7321 7.65131H36.968C37.3991 7.65131 37.7487 7.30169 37.7487 6.87057C37.7487 6.43945 37.3991 6.08983 36.968 6.08983H34.0012C33.5701 6.08983 33.2205 6.43945 33.2205 6.87057V9.83737C33.2205 10.2685 33.5701 10.6181 34.0012 10.6181C34.4323 10.6181 34.7819 10.2685 34.7819 9.83737V8.97833C37.1509 12.1498 38.4385 15.9978 38.4385 20C38.4385 30.1671 30.1671 38.4385 20 38.4385C9.83292 38.4385 1.56148 30.1671 1.56148 20C1.56148 9.83292 9.83292 1.56148 20 1.56148C20.7519 1.56148 21.5087 1.60715 22.2495 1.69717C22.6769 1.74885 23.0667 1.44444 23.1187 1.01636C23.1708 0.588364 22.866 0.199088 22.4379 0.147091C21.6349 0.0494988 20.8147 0 20 0C14.6578 0 9.63532 2.08035 5.85787 5.85787C2.08035 9.63532 0 14.6578 0 20C0 25.3422 2.08035 30.3647 5.85787 34.1421C9.63532 37.9196 14.6578 40 20 40C25.3422 40 30.3647 37.9196 34.1421 34.1421C37.9196 30.3647 40 25.3422 40 20C40 15.4919 38.494 11.1642 35.7321 7.65131Z" fill="white"/>
<path d="M8.46883 11.7902C8.10446 11.5596 7.6222 11.6681 7.39149 12.0322C5.60914 14.8473 4.82013 18.2327 5.16982 21.565C5.52467 24.9466 7.04671 28.1357 9.4556 30.5446C12.3627 33.4517 16.1813 34.9053 20.0001 34.9053C23.8188 34.9053 27.6374 33.4518 30.5446 30.5446C36.3588 24.7304 36.3588 15.2699 30.5446 9.45572C28.1394 7.05058 24.9556 5.52908 21.5795 5.1715C18.2534 4.819 14.8717 5.60184 12.0578 7.37544C11.693 7.60537 11.5837 8.08748 11.8136 8.45224C12.0435 8.81708 12.5256 8.9263 12.8904 8.69645C18.1946 5.35333 25 6.11947 29.4404 10.5598C34.6458 15.7653 34.6458 24.235 29.4404 29.4404C24.235 34.6459 15.7651 34.6459 10.5598 29.4404C6.1808 25.0614 5.40318 18.0915 8.71086 12.8676C8.94141 12.5033 8.83312 12.0209 8.46883 11.7902Z" fill="white"/>
<path d="M30.1496 20.7929H31.1124C31.5436 20.7929 31.8932 20.4433 31.8932 20.0122C31.8932 19.5811 31.5436 19.2314 31.1124 19.2314H30.1496C29.7185 19.2314 29.3689 19.5811 29.3689 20.0122C29.3689 20.4433 29.7184 20.7929 30.1496 20.7929Z" fill="white"/>
<path d="M8.10657 19.9878C8.10657 20.4189 8.45618 20.7685 8.8873 20.7685H9.85011C10.2812 20.7685 10.6308 20.4189 10.6308 19.9878C10.6308 19.5566 10.2812 19.207 9.85011 19.207H8.8873C8.45618 19.207 8.10657 19.5566 8.10657 19.9878Z" fill="white"/>
<path d="M20.7934 9.84999V8.88718C20.7934 8.45606 20.4438 8.10645 20.0127 8.10645C19.5815 8.10645 19.2319 8.45606 19.2319 8.88718V9.84999C19.2319 10.2811 19.5815 10.6307 20.0127 10.6307C20.4438 10.6307 20.7934 10.2811 20.7934 9.84999Z" fill="white"/>
<path d="M19.2065 30.1499V31.1127C19.2065 31.5438 19.5562 31.8934 19.9873 31.8934C20.4184 31.8934 20.768 31.5438 20.768 31.1127V30.1499C20.768 29.7188 20.4184 29.3691 19.9873 29.3691C19.5562 29.3691 19.2065 29.7187 19.2065 30.1499Z" fill="white"/>
<path d="M16.0868 14.9821C15.7818 14.6773 15.2876 14.6773 14.9826 14.9821C14.6777 15.2869 14.6777 15.7813 14.9826 16.0863L17.6286 18.7323C17.4258 19.1101 17.3105 19.5417 17.3105 19.9996C17.3105 21.4827 18.517 22.6893 20.0001 22.6893C21.4832 22.6893 22.6898 21.4827 22.6898 19.9996C22.6898 19.5417 22.5744 19.1101 22.3717 18.7323L27.7106 13.3933C28.0155 13.0885 28.0155 12.5941 27.7106 12.2891C27.4057 11.9843 26.9115 11.9843 26.6064 12.2891L21.2675 17.6281C20.8896 17.4253 20.4581 17.31 20.0001 17.31C19.5422 17.31 19.1106 17.4254 18.7328 17.6281L16.0868 14.9821ZM21.1283 19.9996C21.1283 20.6217 20.6222 21.1278 20.0001 21.1278C19.378 21.1278 18.872 20.6217 18.872 19.9996C18.872 19.3775 19.378 18.8715 20.0001 18.8715C20.6222 18.8715 21.1283 19.3775 21.1283 19.9996Z" fill="white"/>
<path d="M10.5593 10.5593C10.7053 10.4141 10.7887 10.2126 10.7887 10.0073C10.7887 9.80196 10.7053 9.60132 10.5593 9.45532C10.4141 9.31018 10.2133 9.22656 10.0073 9.22656C9.80196 9.22656 9.60053 9.3101 9.45532 9.45532C9.31018 9.60054 9.22656 9.80196 9.22656 10.0073C9.22656 10.2134 9.3101 10.4141 9.45532 10.5593C9.60053 10.7044 9.80196 10.788 10.0073 10.788C10.2133 10.788 10.4141 10.7044 10.5593 10.5593Z" fill="white"/>
<path d="M25.4083 2.33296C25.6145 2.33296 25.8159 2.25012 25.9611 2.1042C26.1063 1.95899 26.1899 1.75826 26.1899 1.55222C26.1899 1.34689 26.1064 1.14546 25.9611 1.00024C25.8159 0.855101 25.6145 0.771484 25.4083 0.771484C25.203 0.771484 25.0015 0.855023 24.8564 1.00024C24.7112 1.14546 24.6276 1.34689 24.6276 1.55222C24.6276 1.75834 24.7111 1.95899 24.8564 2.1042C25.0015 2.25012 25.203 2.33296 25.4083 2.33296Z" fill="white"/>
</svg>
