<svg width="40" height="35" viewBox="0 0 40 35" fill="none" xmlns="http://www.w3.org/2000/svg">
<path d="M38.294 12.2171C38.1136 12.2171 37.9284 12.2421 37.7435 12.2918L35.8008 12.8115L33.7473 7.95291C33.1321 6.49675 31.313 5.31193 29.6923 5.31193H28.326V1.28394C28.326 0.575891 27.7331 0 27.0042 0H12.996C12.267 0 11.6742 0.575891 11.6742 1.28394V5.31193H10.2796C8.65916 5.31193 6.83988 6.49658 6.22464 7.95274L4.17396 12.8047L2.2567 12.2916C2.07182 12.2421 1.88643 12.217 1.70614 12.217C0.717631 12.2171 0 12.9509 0 13.9616V14.9942C0 16.1743 0.988329 17.1341 2.20294 17.1341H2.34429L2.05103 17.8278C1.47932 19.1807 1.01406 21.4713 1.01406 22.9336V32.6267C1.01406 33.8067 2.00221 34.7666 3.217 34.7666H5.86529C7.08009 34.7666 8.06824 33.8067 8.06824 32.6267V30.2444H31.9039V32.6267C31.9039 33.8067 32.8922 34.7666 34.1069 34.7666H36.7546C37.9694 34.7666 38.9576 33.8067 38.9576 32.6267V22.9336C38.9576 21.4713 38.4923 19.1807 37.9206 17.8278L37.6273 17.1341H37.7971C39.0118 17.1341 40 16.1743 40 14.9942V13.9616C40 12.9509 39.2825 12.2171 38.294 12.2171ZM25.3095 1.71227C25.3095 1.68402 25.3333 1.66091 25.3624 1.66091H26.3807C26.4098 1.66091 26.4336 1.68402 26.4336 1.71227V5.27255C26.4336 5.28967 26.4235 5.30251 26.4103 5.31193H25.3328C25.3196 5.30251 25.3095 5.28967 25.3095 5.27255V1.71227ZM18.0063 1.66091H19.2299C19.259 1.66091 19.2916 1.68231 19.3024 1.70867L20.7547 5.25509L22.086 3.6553C22.1043 3.63339 22.1061 3.59607 22.0901 3.57261L20.8124 1.70371C20.7961 1.68008 20.8069 1.66091 20.836 1.66091H21.9676C21.9967 1.66091 22.033 1.6806 22.0481 1.70456L22.7067 2.74233C22.7219 2.76647 22.7469 2.76647 22.7621 2.74233L23.4212 1.70456C23.4363 1.68042 23.4726 1.66091 23.5017 1.66091H24.6339C24.6629 1.66091 24.6735 1.68008 24.6575 1.70371L23.3787 3.57261C23.3625 3.59624 23.3644 3.63339 23.3826 3.6553L24.7382 5.28402C24.7473 5.29481 24.7495 5.30491 24.7461 5.3121H23.5445C23.5287 5.30405 23.5144 5.29327 23.5061 5.28043L22.7622 4.12402C22.7467 4.10006 22.7217 4.10006 22.7062 4.12402L21.9639 5.28043C21.9556 5.29327 21.9413 5.30405 21.9255 5.3121H19.6614C19.6459 5.3032 19.6325 5.29087 19.6274 5.27529L19.3778 4.533C19.3688 4.50613 19.3376 4.48421 19.3085 4.48421H17.9216C17.8925 4.48421 17.8608 4.50595 17.8512 4.53266L17.5823 5.27564C17.5767 5.29104 17.5633 5.30337 17.5476 5.3121H16.4586C16.45 5.30337 16.4463 5.29139 16.4525 5.27649L17.9336 1.70884C17.9447 1.68231 17.9773 1.66091 18.0063 1.66091ZM14.4252 5.27255V2.44446C14.4252 2.41621 14.4014 2.3931 14.3724 2.3931H13.1484C13.1193 2.3931 13.0955 2.36999 13.0955 2.34174V1.7121C13.0955 1.68385 13.1193 1.66074 13.1484 1.66074H16.8335C16.8626 1.66074 16.8864 1.68385 16.8864 1.7121V2.34174C16.8864 2.36999 16.8626 2.3931 16.8335 2.3931H15.6025C15.5734 2.3931 15.5496 2.41621 15.5496 2.44446V5.27255C15.5496 5.28967 15.5396 5.30251 15.5264 5.31193H14.4485C14.4353 5.30268 14.4252 5.28967 14.4252 5.27255ZM5.73047 15.9414L8.85072 8.55808C9.21888 7.68705 10.3131 6.97438 11.2824 6.97438H28.6896C29.6589 6.97438 30.7531 7.68705 31.1213 8.55808L34.2415 15.9414C34.6097 16.8125 34.1178 17.5251 33.1485 17.5251H6.82349C5.85419 17.5251 5.36232 16.8125 5.73047 15.9414ZM12.7792 25.4498C12.7792 25.9206 12.3827 26.3058 11.898 26.3058H5.94231C5.45766 26.3058 5.06113 25.9206 5.06113 25.4498V22.7052C5.06113 22.2345 5.45766 21.8493 5.94231 21.8493H11.898C12.3827 21.8493 12.7792 22.2345 12.7792 22.7052V25.4498ZM34.8537 25.4498C34.8537 25.9206 34.4572 26.3058 33.9726 26.3058H28.0169C27.5322 26.3058 27.1357 25.9206 27.1357 25.4498V22.7052C27.1357 22.2345 27.5322 21.8493 28.0169 21.8493H33.9726C34.4572 21.8493 34.8537 22.2345 34.8537 22.7052V25.4498Z" fill="white"/>
<path d="M19.0611 3.75189C19.0901 3.75189 19.1044 3.73066 19.093 3.70481L18.6538 2.72027C18.6422 2.69441 18.6228 2.69407 18.6108 2.71975L18.1457 3.70533C18.1337 3.73101 18.1474 3.75189 18.1765 3.75189H19.0611Z" fill="white"/>
</svg>
